<?xml version="1.0" encoding="utf-8"?>
<!-- Generator: Adobe Illustrator 28.0.0, SVG Export Plug-In . SVG Version: 6.00 Build 0)  -->
<svg version="1.1" id="Layer_1" xmlns="http://www.w3.org/2000/svg" xmlns:xlink="http://www.w3.org/1999/xlink" x="0px" y="0px"
	 viewBox="0 0 778.3 197.1" style="enable-background:new 0 0 778.3 197.1;" xml:space="preserve">
<style type="text/css">
	.st0{fill:#A37D64;}
	.st1{fill:#685441;}
	.st2{fill:#C7C7C7;}
	.st3{fill:#B3B3B3;}
</style>
<g>
	<path id="path940_00000064332691678216212920000014911988797939564949_" class="st0" d="M46.3,157.3v-52.9l48.3-27.7l48.6,27.7
		v52.9h-15.7v-44L94.6,94.6L62,113.3v44H46.3L46.3,157.3z"/>
	<path id="path942_00000078009777820626128980000013856688716753501579_" class="st1" d="M94.9,8.8L17.1,53.7v89.8l77.8,44.9
		l77.8-44.9V53.7L94.9,8.8z M94.9,25.7l63,36.3v72.9l-63,36.6l-63.3-36.6V62L94.9,25.7L94.9,25.7z"/>
	<path id="path960_00000105391658593853841880000012172043912485528987_" class="st1" d="M255.7,79.5h-8.9v29.3h-13.9V35.7h21.8
		c19.3,0,29,7.2,29,21.5c0.2,4.3-1.1,8.5-3.6,12c-3,3.6-6.8,6.2-11.2,7.7l19.1,31.8h-16.1L255.7,79.5L255.7,79.5z M246.8,69.5h8.7
		c3.6,0.3,7.1-0.8,10-2.8c2.5-2.4,3.8-5.9,3.5-9.4c0.3-3.3-1-6.5-3.6-8.6c-3.3-2.1-7.2-3.1-11.1-2.8h-7.5L246.8,69.5L246.8,69.5z"/>
	<path id="use962_00000065774132138147046060000015807803788663389846_" class="st1" d="M337.3,94c-0.1,1.7,0.2,3.3,1,4.9
		c0.8,1.1,2,1.9,3.3,2.3l-2.9,9c-2.8-0.2-5.4-0.9-7.8-2.3c-2.1-1.4-3.7-3.4-4.5-5.8c-1.8,2.7-4.3,4.9-7.2,6.3c-3,1.4-6.2,2.1-9.5,2
		c-4.9,0.3-9.6-1.5-13.2-4.8c-3.3-3.3-5-7.8-4.9-12.5c-0.3-5.4,2.2-10.6,6.6-13.8c5.6-3.6,12.3-5.3,18.9-4.9h7v-3.2
		c0.3-2.8-0.6-5.5-2.5-7.5c-2.3-1.7-5.1-2.5-7.9-2.2c-5.1,0.2-10.1,1.2-14.8,3l-3.2-9.2c6.5-2.6,13.3-3.9,20.3-4
		c14.3,0,21.5,6.4,21.5,19.2L337.3,94L337.3,94z M313.2,100.5c4.6,0,8.8-2.7,10.8-6.9V82.4h-5.6c-8.7,0-13.1,3.2-13.1,9.7
		c-0.1,2.3,0.6,4.5,2,6.2C308.9,99.9,311,100.7,313.2,100.5L313.2,100.5L313.2,100.5z"/>
	<path id="path964_00000071523575442336151520000006406367809938848938_" class="st1" d="M367.3,52.9v55.9h-13.5V52.9
		C353.7,52.9,367.3,52.9,367.3,52.9z M360.4,24.5c2.3-0.1,4.5,0.8,6.1,2.4c1.6,1.5,2.5,3.6,2.4,5.8c0,2.2-0.8,4.3-2.4,5.8
		c-1.6,1.6-3.9,2.4-6.1,2.3c-2.3,0.1-4.5-0.8-6.1-2.3c-1.5-1.5-2.4-3.6-2.3-5.8c-0.1-2.2,0.8-4.3,2.3-5.8
		C355.9,25.3,358.1,24.5,360.4,24.5z M413.4,51.3c4.4-0.3,8.6,1.4,11.6,4.5c3,3.4,4.5,7.9,4.2,12.5v40.5h-13.5V70.4
		c0.2-2.5-0.4-4.9-1.8-7c-1.3-1.4-3.2-2.2-5.1-2c-2.3,0-4.5,0.8-6.3,2.2c-2.1,1.8-4,3.9-5.4,6.2v38.9h-13.5V52.9h11.7l1.1,7.3
		C400.2,54.6,406.6,51.3,413.4,51.3L413.4,51.3z M504.3,51.3c4.1-0.2,8.1,1.5,10.8,4.7c2.8,3.5,4.3,7.9,4,12.4v40.5h-13.5V70.4
		c0-6-2-9-6.1-9c-2.1,0-4.1,0.7-5.7,2.1c-2,1.8-3.6,4-4.9,6.3v38.9h-13.5V70.4c0-6-2-9-6.1-9c-2.1,0-4.2,0.7-5.8,2.1
		c-2,1.8-3.6,4-4.9,6.3v38.9H445V52.9h11.8l1.1,7.3c3.5-5.5,9.6-8.9,16.2-8.9c3-0.1,5.9,0.8,8.4,2.5c2.4,1.7,4.2,4.1,5.2,6.9
		c2-2.8,4.5-5.2,7.4-7C497.8,52.1,501,51.2,504.3,51.3L504.3,51.3z"/>
	<path id="use966_00000137130840608678646240000001365854502064092840_" class="st1" d="M576.2,94c-0.1,1.7,0.2,3.3,1,4.9
		c0.8,1.1,2,1.9,3.3,2.3l-2.8,9c-2.8-0.2-5.4-0.9-7.8-2.3c-2.1-1.4-3.7-3.4-4.5-5.8c-1.8,2.7-4.3,4.9-7.2,6.3c-3,1.4-6.2,2.1-9.5,2
		c-4.9,0.3-9.6-1.5-13.2-4.8c-3.3-3.3-5-7.8-4.9-12.5c-0.3-5.4,2.2-10.6,6.6-13.8c5.6-3.6,12.3-5.3,18.9-4.9h7v-3.2
		c0.3-2.8-0.6-5.5-2.5-7.5c-2.3-1.7-5.1-2.5-7.9-2.2c-5.1,0.2-10.1,1.2-14.8,3l-3.2-9.2c6.5-2.6,13.3-3.9,20.3-4
		c14.3,0,21.5,6.4,21.5,19.2L576.2,94L576.2,94z M552,100.5c4.6,0,8.8-2.7,10.8-6.9V82.4h-5.6c-8.7,0-13.1,3.2-13.1,9.7
		c-0.1,2.3,0.6,4.5,2,6.2C547.7,99.9,549.8,100.7,552,100.5L552,100.5L552,100.5z"/>
	<path id="use968_00000096776311473600395900000012809964899207149220_" class="st1" d="M624.6,106.2c-2,1.4-4.3,2.5-6.7,3.2
		s-4.9,1.1-7.4,1.1c-4.7,0.2-9.2-1.4-12.6-4.7c-3.1-3.8-4.6-8.7-4.2-13.6V62.6H585v-9.7h8.8V40.5l13.5-1.6v14h13l-1.4,9.7h-11.6
		v29.2c-0.2,2.1,0.3,4.1,1.4,5.9c1.2,1.3,2.8,1.9,4.5,1.8c2.4-0.1,4.7-0.8,6.7-2L624.6,106.2L624.6,106.2z"/>
	<path id="use970_00000005230080077540601680000009220719354187910811_" class="st1" d="M664.2,106.2c-2,1.4-4.3,2.5-6.7,3.2
		s-4.9,1.1-7.4,1.1c-4.7,0.2-9.2-1.4-12.6-4.7c-3.1-3.8-4.6-8.7-4.2-13.6V62.6h-8.8v-9.7h8.8V40.5l13.5-1.6v14h13l-1.4,9.7h-11.6
		v29.2c-0.2,2.1,0.3,4.1,1.4,5.9c1.2,1.3,2.8,1.9,4.5,1.8c2.4-0.1,4.7-0.8,6.7-2L664.2,106.2L664.2,106.2z"/>
	<path id="path972_00000111900201145287893980000009557062244746020007_" class="st1" d="M715.9,79.5c0,0.7-0.1,2.5-0.3,5.5h-35.1
		c0,4.3,1.5,8.4,4.2,11.6c2.6,2.4,6,3.7,9.5,3.5c2.4,0,4.7-0.4,7-1.2c2.5-1,4.8-2.3,7-3.8l5.6,7.7c-5.8,4.9-13.2,7.5-20.7,7.5
		c-7.4,0.4-14.7-2.4-19.8-7.8c-4.9-6-7.3-13.6-6.9-21.4c-0.1-5.3,0.9-10.5,3-15.3c1.8-4.3,4.7-8,8.6-10.7c10-6.3,23.2-4.8,31.5,3.6
		C714.1,64.7,716.4,72,715.9,79.5L715.9,79.5L715.9,79.5z M702.5,75.6c0-9.8-3.6-14.7-10.9-14.7c-3.1-0.1-6,1.3-7.8,3.7
		c-2.2,3.5-3.3,7.5-3.3,11.6h22V75.6L702.5,75.6z M755.7,51.4c1.9,0,3.8,0.2,5.6,0.7L759,65.2c-1.6-0.4-3.3-0.6-5-0.6
		c-3-0.1-5.9,1.2-7.8,3.6c-2.3,3.2-3.8,6.9-4.5,10.8v29.8h-13.5V52.9h11.7l1.3,11c1-3.5,3-6.7,5.8-9.2
		C749.3,52.5,752.5,51.4,755.7,51.4L755.7,51.4L755.7,51.4z"/>
	<g>
		<path class="st2" d="M744.4,148.5h4l10.9,24.8h-4.6l-2.5-6h-11.7l-2.5,6h-4.4L744.4,148.5z M750.6,163.6l-4.3-9.9l-4.2,9.9H750.6z
			"/>
		<path class="st2" d="M708.9,148.7h4.3V159H725v-10.3h4.3v24.7H725V163h-11.8v10.4h-4.3V148.7z"/>
		<path class="st2" d="M557,153.7c1.7,2.2,3,4.6,4.1,7.2v-13.8h-11.7C552.2,148.6,554.8,150.9,557,153.7z"/>
		<path class="st2" d="M540.1,148.6c-2.2,0-4.3,0.5-6.2,1.3v24.5H560C559.7,160.1,550.9,148.6,540.1,148.6"/>
		<path class="st2" d="M576.7,170.1l14.6-17.6h-14.1v-3.8h19.7v3.2l-14.6,17.6h14.6v3.8h-20.2V170.1L576.7,170.1z"/>
		<path class="st2" d="M602.3,148.7h18.3v3.9h-14v6.3H619v3.9h-12.4v6.6h14.1v3.9h-18.4L602.3,148.7L602.3,148.7z"/>
		<path class="st2" d="M625.9,148.7h11c1.6,0,2.9,0.2,4.1,0.7c1.2,0.4,2.2,1,3,1.8c0.7,0.7,1.2,1.5,1.5,2.4c0.4,0.9,0.5,1.9,0.5,3
			v0.1c0,1-0.1,1.9-0.4,2.7c-0.3,0.8-0.7,1.5-1.2,2.1s-1.1,1.2-1.9,1.6s-1.5,0.8-2.4,1l6.7,9.3h-5.1l-6.1-8.6h-0.1h-5.4v8.6h-4.3
			v-24.7H625.9z M636.6,160.9c1.6,0,2.8-0.4,3.7-1.1c0.9-0.7,1.4-1.8,1.4-3v-0.1c0-1.3-0.4-2.4-1.3-3.1c-0.9-0.7-2.2-1-3.8-1h-6.3
			v8.3L636.6,160.9L636.6,160.9z"/>
		<path class="st2" d="M663.1,173.8c-1.9,0-3.6-0.3-5.2-1c-1.6-0.7-2.9-1.6-4.1-2.7c-1.1-1.2-2-2.5-2.6-4s-1-3.2-1-4.9V161
			c0-1.7,0.3-3.4,1-4.9c0.6-1.5,1.5-2.9,2.7-4.1c1.2-1.2,2.5-2.1,4.1-2.8s3.3-1,5.2-1s3.6,0.3,5.2,1c1.6,0.7,2.9,1.6,4.1,2.7
			s2,2.5,2.6,4s1,3.2,1,4.9v0.1c0,1.7-0.3,3.4-1,4.9c-0.6,1.5-1.5,2.9-2.7,4.1c-1.2,1.2-2.5,2.1-4.1,2.8
			C666.8,173.4,665,173.8,663.1,173.8z M663.2,169.8c1.2,0,2.3-0.2,3.4-0.7c1-0.5,1.9-1.1,2.6-1.9c0.7-0.8,1.3-1.7,1.7-2.8
			s0.6-2.2,0.6-3.4v0c0-1.2-0.2-2.3-0.6-3.4s-1-2-1.7-2.8s-1.6-1.4-2.7-1.9c-1-0.5-2.2-0.7-3.4-0.7s-2.3,0.2-3.4,0.7
			c-1,0.5-1.9,1.1-2.6,1.9c-0.7,0.8-1.3,1.7-1.7,2.8s-0.6,2.2-0.6,3.4v0.1c0,1.2,0.2,2.3,0.6,3.4c0.4,1.1,1,2,1.7,2.8
			s1.6,1.4,2.7,1.9C660.9,169.6,662,169.8,663.2,169.8z"/>
		<path class="st2" d="M681.3,148.7h9.2c1.9,0,3.7,0.3,5.3,0.9c1.6,0.6,3,1.5,4.2,2.6s2.1,2.4,2.7,3.9c0.6,1.5,1,3.1,1,4.8v0.1
			c0,1.7-0.3,3.4-1,4.9c-0.6,1.5-1.5,2.8-2.7,3.9c-1.2,1.1-2.5,2-4.2,2.6c-1.6,0.6-3.4,1-5.3,1h-9.2V148.7L681.3,148.7z
			 M690.5,169.4c1.3,0,2.5-0.2,3.5-0.6c1.1-0.4,2-1,2.7-1.7s1.3-1.6,1.7-2.7c0.4-1,0.6-2.1,0.6-3.3V161c0-1.2-0.2-2.3-0.6-3.4
			c-0.4-1-1-1.9-1.7-2.7c-0.7-0.7-1.6-1.3-2.7-1.8c-1.1-0.4-2.2-0.6-3.5-0.6h-4.9v16.8L690.5,169.4L690.5,169.4z"/>
	</g>
	<g>
		<path class="st3" d="M232.3,174.3V144h16.1l-0.5,3.3h-11.4v10.3h9.9v3.3h-9.9v13.3L232.3,174.3L232.3,174.3z"/>
		<path class="st3" d="M268.4,153.8c1.8,2.2,2.7,5.1,2.7,8.8c0,2.4-0.4,4.5-1.2,6.4s-2,3.3-3.6,4.3s-3.4,1.5-5.5,1.5
			c-3.3,0-5.8-1.1-7.6-3.3s-2.7-5.1-2.7-8.8c0-2.4,0.4-4.5,1.2-6.4c0.8-1.8,2-3.3,3.6-4.3s3.4-1.5,5.6-1.5
			C264.1,150.6,266.6,151.7,268.4,153.8z M254.8,162.7c0,5.9,2,8.8,6,8.8s6-3,6-8.9s-2-8.8-5.9-8.8
			C256.8,153.8,254.8,156.8,254.8,162.7z"/>
		<path class="st3" d="M295.1,174.3h-3.5l-0.3-3.6c-0.9,1.4-1.9,2.5-3,3.1c-1.1,0.7-2.5,1-4.2,1c-2,0-3.6-0.6-4.8-1.8
			c-1.1-1.2-1.7-3-1.7-5.2v-16.6h4v16.2c0,1.6,0.3,2.7,0.8,3.4c0.6,0.7,1.5,1,2.7,1c2.3,0,4.2-1.3,5.8-4v-16.5h4v23H295.1z"/>
		<path class="st3" d="M319.3,152.5c1.2,1.3,1.8,3,1.8,5.2v16.6h-4v-16.1c0-1.6-0.3-2.8-0.9-3.5s-1.5-1-2.7-1s-2.3,0.4-3.3,1.1
			c-0.9,0.7-1.8,1.7-2.6,3v16.5h-4v-23.2h3.5l0.4,3.4c0.8-1.2,1.8-2.2,3.1-2.9c1.2-0.7,2.6-1.1,4-1.1
			C316.5,150.6,318.1,151.2,319.3,152.5z"/>
		<path class="st3" d="M347.2,141.8v32.5h-3.6l-0.4-3.2c-0.8,1.2-1.7,2.1-2.9,2.8c-1.1,0.7-2.4,1-3.8,1c-2.8,0-4.9-1.1-6.4-3.3
			s-2.3-5.1-2.3-8.8c0-2.4,0.4-4.5,1.1-6.3s1.8-3.3,3.2-4.3c1.4-1,3-1.6,4.8-1.6c2.4,0,4.5,1,6.2,2.9v-12.1L347.2,141.8z
			 M340.6,170.8c0.9-0.6,1.7-1.4,2.6-2.6v-11.4c-0.8-1-1.6-1.8-2.4-2.3c-0.9-0.5-1.8-0.8-2.9-0.8c-1.8,0-3.2,0.7-4.2,2.2
			s-1.5,3.7-1.5,6.7s0.5,5.2,1.4,6.7s2.2,2.2,3.9,2.2C338.6,171.6,339.7,171.3,340.6,170.8z"/>
		<path class="st3" d="M371.6,171c0.3,0.5,0.8,0.8,1.5,1l-0.9,2.8c-1.2-0.1-2.2-0.5-2.9-1c-0.7-0.5-1.3-1.3-1.6-2.5
			c-1.6,2.3-3.9,3.5-6.9,3.5c-2.3,0-4.1-0.6-5.4-1.9c-1.3-1.3-2-3-2-5.1c0-2.5,0.9-4.4,2.7-5.7c1.8-1.3,4.3-2,7.5-2h3.6v-1.7
			c0-1.6-0.4-2.8-1.2-3.5s-2-1.1-3.7-1.1s-3.8,0.4-6.2,1.2l-1-2.9c2.9-1.1,5.5-1.6,8-1.6c2.7,0,4.8,0.7,6.1,2c1.3,1.3,2,3.2,2,5.7
			v10.6C371.2,169.8,371.3,170.5,371.6,171z M367.1,168.2v-5.3h-3c-4.3,0-6.4,1.6-6.4,4.8c0,1.4,0.3,2.4,1,3.1
			c0.7,0.7,1.7,1.1,3,1.1C364,171.8,365.8,170.6,367.1,168.2z"/>
		<path class="st3" d="M391.2,173.2c-1.5,1.1-3.3,1.6-5.2,1.6c-2,0-3.5-0.6-4.6-1.7c-1.1-1.1-1.6-2.8-1.6-4.9v-14h-4v-3.1h4v-5.2
			l4-0.5v5.7h5.5l-0.4,3.1h-5.1V168c0,1.2,0.2,2.1,0.6,2.6s1.1,0.8,2.1,0.8c0.9,0,1.9-0.3,3.1-0.9L391.2,173.2z"/>
		<path class="st3" d="M399.4,140.8c0.5,0.5,0.8,1.2,0.8,2s-0.3,1.4-0.8,2c-0.5,0.5-1.2,0.8-2.1,0.8c-0.8,0-1.5-0.3-2-0.8
			s-0.8-1.2-0.8-2s0.3-1.5,0.8-2s1.2-0.8,2-0.8C398.2,140,398.9,140.2,399.4,140.8z M399.4,151.1v23.2h-4v-23.2H399.4z"/>
		<path class="st3" d="M424.1,153.8c1.8,2.2,2.7,5.1,2.7,8.8c0,2.4-0.4,4.5-1.2,6.4s-2,3.3-3.6,4.3s-3.4,1.5-5.5,1.5
			c-3.3,0-5.8-1.1-7.6-3.3c-1.8-2.2-2.7-5.1-2.7-8.8c0-2.4,0.4-4.5,1.2-6.4c0.8-1.8,2-3.3,3.6-4.3s3.4-1.5,5.6-1.5
			C419.7,150.6,422.3,151.7,424.1,153.8z M410.5,162.7c0,5.9,2,8.8,6,8.8s6-3,6-8.9s-2-8.8-5.9-8.8
			C412.5,153.8,410.5,156.8,410.5,162.7z"/>
		<path class="st3" d="M449.3,152.5c1.2,1.3,1.8,3,1.8,5.2v16.6h-4v-16.1c0-1.6-0.3-2.8-0.9-3.5s-1.5-1-2.7-1s-2.3,0.4-3.3,1.1
			c-0.9,0.7-1.8,1.7-2.6,3v16.5h-4v-23.2h3.5l0.4,3.4c0.8-1.2,1.8-2.2,3.1-2.9c1.2-0.7,2.6-1.1,4-1.1
			C446.5,150.6,448.1,151.2,449.3,152.5z"/>
	</g>
	<g>
		<path class="st3" d="M489.5,153.8c1.6,2.1,2.3,5.1,2.3,8.9c0,2.4-0.4,4.5-1.1,6.4s-1.8,3.3-3.2,4.3c-1.4,1-3,1.5-4.8,1.5
			c-2.4,0-4.5-1-6.2-3.1l-0.4,2.6h-3.6v-32.5l4-0.5V154c1.7-2.3,3.9-3.4,6.6-3.4C485.9,150.6,488,151.6,489.5,153.8z M486,169.4
			c1-1.5,1.5-3.7,1.5-6.8s-0.5-5.4-1.4-6.8c-0.9-1.4-2.3-2.1-4-2.1c-2.1,0-3.9,1.2-5.4,3.6v11.1c0.6,1,1.4,1.7,2.3,2.3
			s1.8,0.8,2.8,0.8C483.6,171.6,485,170.9,486,169.4z"/>
		<path class="st3" d="M507.9,174.4c-0.9,2.7-2.2,4.8-3.8,6.4c-1.6,1.6-4,2.5-7,2.8l-0.4-3.2c1.5-0.3,2.7-0.6,3.7-1.1
			c0.9-0.5,1.6-1.1,2.2-1.9c0.5-0.8,1-1.8,1.5-3.1h-1.4l-7.8-23.2h4.3l6.2,20.2l6.1-20.2h4.2L507.9,174.4z"/>
	</g>
</g>
</svg>
