<?xml version="1.0" encoding="UTF-8" standalone="no"?>
<svg
   xmlns:dc="http://purl.org/dc/elements/1.1/"
   xmlns:cc="http://creativecommons.org/ns#"
   xmlns:rdf="http://www.w3.org/1999/02/22-rdf-syntax-ns#"
   xmlns:svg="http://www.w3.org/2000/svg"
   xmlns="http://www.w3.org/2000/svg"
   xmlns:xlink="http://www.w3.org/1999/xlink"
   xmlns:sodipodi="http://sodipodi.sourceforge.net/DTD/sodipodi-0.dtd"
   xmlns:inkscape="http://www.inkscape.org/namespaces/inkscape"
   width="177.168"
   height="44.868"
   version="1.1"
   id="svg44"
   sodipodi:docname="logo-white.svg"
   inkscape:version="1.0.2 (e86c870879, 2021-01-15)">
  <metadata
     id="metadata48">
    <rdf:RDF>
      <cc:Work
         rdf:about="">
        <dc:format>image/svg+xml</dc:format>
        <dc:type
           rdf:resource="http://purl.org/dc/dcmitype/StillImage" />
        <dc:title></dc:title>
      </cc:Work>
    </rdf:RDF>
  </metadata>
  <sodipodi:namedview
     pagecolor="#ffffff"
     bordercolor="#666666"
     borderopacity="1"
     objecttolerance="10"
     gridtolerance="10"
     guidetolerance="10"
     inkscape:pageopacity="0"
     inkscape:pageshadow="2"
     inkscape:window-width="774"
     inkscape:window-height="480"
     id="namedview46"
     showgrid="false"
     inkscape:zoom="1"
     inkscape:cx="88.584"
     inkscape:cy="22.434"
     inkscape:window-x="0"
     inkscape:window-y="0"
     inkscape:window-maximized="0"
     inkscape:current-layer="svg44" />
  <path
     d="M6.048 30.751V19.8l9.996-5.73 10.059 5.73v10.951h-3.247v-9.104l-6.812-3.884-6.749 3.884v9.104z"
     fill="#a37d64"
     id="path2"
     style="fill:#ffffff" />
  <path
     d="M16.108 0L0 9.295v18.591l16.108 9.295 16.108-9.295V9.295zm0 3.502l13.052 7.513v15.089L16.108 33.68 2.992 26.103V11.014z"
     fill="#685441"
     id="path4"
     style="fill:#ffffff" />
  <g
     fill="#b3b3b3"
     id="g20"
     style="fill:#ffffff">
    <path
       d="M120.238 44.732v-7.797h4.142l-.124.86h-2.942v2.659h2.546v.849h-2.546v3.429z"
       id="path6"
       style="fill:#ffffff" />
    <use
       xlink:href="#B"
       id="use8"
       style="fill:#ffffff" />
    <path
       d="M136.386 44.732h-.894l-.079-.928q-.339.554-.781.815-.441.249-1.075.249-.781 0-1.222-.475-.441-.475-.441-1.347v-4.278h1.041v4.164q0 .611.215.871.215.249.702.249.871 0 1.494-1.03v-4.255h1.041z"
       id="path10"
       style="fill:#ffffff" />
    <use
       xlink:href="#C"
       id="use12"
       style="fill:#ffffff" />
    <path
       d="M149.785 36.369v8.363h-.917l-.102-.826q-.294.453-.736.713-.441.249-.985.249-1.064 0-1.663-.837-.588-.837-.588-2.252 0-.917.283-1.63.283-.713.815-1.109.532-.407 1.245-.407.917 0 1.607.736v-3.123zm-2.512 7.672q.475 0 .815-.215.339-.226.656-.668v-2.92q-.294-.385-.634-.577-.328-.204-.747-.204-.69 0-1.075.577-.373.577-.373 1.72 0 1.154.351 1.72.351.566 1.007.566zm8.679-.701q0 .362.124.543.124.17.373.26l-.238.724q-.464-.057-.747-.26-.283-.204-.419-.634-.6.894-1.777.894-.883 0-1.392-.498-.509-.498-.509-1.301 0-.951.679-1.46.69-.509 1.946-.509h.917v-.441q0-.634-.306-.905-.306-.272-.939-.272-.656 0-1.607.317l-.26-.758q1.109-.407 2.06-.407 1.052 0 1.573.521.521.509.521 1.46zm-2.444.747q.894 0 1.403-.928V41.79h-.781q-1.652 0-1.652 1.222 0 .532.26.803.26.272.77.272zm7.593.373q-.588.407-1.335.407-.758 0-1.188-.43-.419-.441-.419-1.267v-3.599h-1.041v-.803h1.041v-1.347l1.041-.124v1.471h1.415l-.113.803H159.2v3.553q0 .464.158.679.17.204.554.204.351 0 .792-.238zm2.116-5.692v5.964h-1.041v-5.964zm-.532-2.863q.328 0 .532.204.204.204.204.509 0 .306-.204.509-.204.192-.532.192-.317 0-.521-.192-.204-.204-.204-.509 0-.306.204-.509.204-.204.521-.204z"
       id="path14"
       style="fill:#ffffff" />
    <use
       xlink:href="#B"
       x="40.026"
       id="use16"
       style="fill:#ffffff" />
    <use
       xlink:href="#C"
       x="33.439"
       id="use18"
       style="fill:#ffffff" />
  </g>
  <g
     fill="#685441"
     id="g36"
     style="fill:#ffffff">
    <path
       d="M48.912 20.689H46.66v7.429h-3.54V9.585h5.525q7.349 0 7.349 5.445 0 1.851-.912 3.058-.912 1.207-2.843 1.958l4.855 8.073h-4.077zm-2.253-2.548h2.199q1.69 0 2.548-.724.885-.751.885-2.387 0-1.502-.912-2.172-.885-.697-2.816-.697H46.66z"
       id="path22"
       style="fill:#ffffff" />
    <use
       xlink:href="#D"
       id="use24"
       style="fill:#ffffff" />
    <path
       d="M77.208 13.93v14.188h-3.433V13.93zm-1.743-7.188q.966 0 1.556.617.617.59.617 1.475 0 .885-.617 1.475-.59.59-1.556.59-.939 0-1.556-.59-.59-.59-.59-1.475 0-.885.59-1.475.617-.617 1.556-.617zm13.437 6.786q1.904 0 2.95 1.153 1.073 1.126 1.073 3.165v10.272h-3.433v-9.736q0-1.261-.456-1.77-.429-.51-1.287-.51-.885 0-1.609.563-.697.536-1.368 1.582v9.87h-3.433V13.93h2.977l.268 1.851q1.743-2.253 4.318-2.253zm23.065 0q1.717 0 2.736 1.18 1.019 1.153 1.019 3.138v10.272h-3.433v-9.736q0-2.28-1.556-2.28-.831 0-1.448.536-.59.51-1.234 1.609v9.87h-3.433v-9.736q0-2.28-1.556-2.28-.858 0-1.475.536-.59.51-1.234 1.609v9.87H96.92V13.93h2.977l.268 1.851q1.609-2.253 4.104-2.253 1.234 0 2.119.644.912.617 1.314 1.743.858-1.153 1.877-1.77 1.046-.617 2.387-.617z"
       id="path26"
       style="fill:#ffffff" />
    <use
       xlink:href="#D"
       x="60.587"
       id="use28"
       style="fill:#ffffff" />
    <use
       xlink:href="#E"
       id="use30"
       style="fill:#ffffff" />
    <use
       xlink:href="#E"
       x="10.058"
       id="use32"
       style="fill:#ffffff" />
    <path
       d="M165.662 20.689q0 .268-.08 1.395h-8.904q.161 2.065 1.073 2.95.912.885 2.414.885.939 0 1.77-.295.831-.322 1.77-.966l1.421 1.958q-2.36 1.904-5.257 1.904-3.245 0-5.015-1.985-1.743-1.985-1.743-5.418 0-2.172.751-3.889.751-1.743 2.172-2.709 1.421-.992 3.379-.992 2.977 0 4.613 1.904 1.636 1.877 1.636 5.257zm-3.406-.992q0-3.728-2.763-3.728-1.261 0-1.985.939-.697.912-.831 2.95h5.579zm13.49-6.142q.778 0 1.421.188l-.59 3.326q-.644-.161-1.261-.161-1.261 0-1.985.912-.724.885-1.153 2.736v7.563h-3.433V13.93h2.977l.322 2.789q.51-1.529 1.475-2.333.966-.831 2.226-.831z"
       id="path34"
       style="fill:#ffffff" />
  </g>
  <defs
     id="defs42">
    <path
       id="B"
       d="M127.582 38.632q1.256 0 1.946.837.702.837.702 2.275 0 .928-.317 1.641-.317.702-.917 1.098-.6.385-1.426.385-1.256 0-1.958-.837-.702-.837-.702-2.275 0-.928.317-1.63.317-.713.917-1.098.6-.396 1.437-.396zm0 .837q-1.55 0-1.55 2.286 0 2.275 1.539 2.275 1.539 0 1.539-2.286 0-2.275-1.528-2.275z" />
    <path
       id="C"
       d="M141.343 38.632q.815 0 1.267.487.464.487.464 1.335v4.278h-1.041v-4.13q0-.634-.238-.894-.238-.26-.702-.26-.475 0-.837.272-.362.272-.679.781v4.232h-1.041v-5.964h.894l.091.883q.317-.475.781-.747.475-.272 1.041-.272z" />
    <path
       id="D"
       d="M69.618 24.363q0 .831.241 1.234.268.375.831.59l-.724 2.28q-1.207-.107-1.985-.59-.751-.483-1.153-1.475-.724 1.073-1.824 1.609-1.073.51-2.414.51-2.119 0-3.353-1.207-1.234-1.207-1.234-3.165 0-2.307 1.663-3.513 1.69-1.234 4.801-1.234h1.77v-.805q0-1.368-.644-1.904-.617-.563-2.012-.563-1.556 0-3.755.751l-.805-2.333q2.655-1.019 5.15-1.019 5.445 0 5.445 4.881zm-6.115 1.663q1.743 0 2.736-1.743v-2.87h-1.421q-3.326 0-3.326 2.467 0 1.019.51 1.582.51.563 1.502.563z" />
    <path
       id="E"
       d="M142.489 27.448q-.751.536-1.69.805-.912.268-1.877.268-2.092-.027-3.192-1.18-1.073-1.18-1.073-3.46v-7.483h-2.226V13.93h2.226v-3.138l3.433-.402v3.54h3.299l-.349 2.467h-2.95V23.8q0 1.046.349 1.502.375.456 1.153.456.778 0 1.69-.51z" />
  </defs>
</svg>
