<svg xmlns="http://www.w3.org/2000/svg" viewBox="0 0 234.88 49.29"><defs><style>.cls-1{fill:#221f1f;}</style></defs><g id="Layer_2" data-name="Layer 2"><g id="Background"><path class="cls-1" d="M74.91,13.88,61.33,32.38l-.69-.48h9.75a4.32,4.32,0,0,0,1.27-.16,1.93,1.93,0,0,0,.87-.61,8.45,8.45,0,0,0,.87-1.34l1.16-2.15a1.52,1.52,0,0,1,.36-.43.71.71,0,0,1,.39-.11.49.49,0,0,1,.38.21.69.69,0,0,1,0,.5l-1.31,4.86a2.15,2.15,0,0,1-.28.73.48.48,0,0,1-.4.2,1.07,1.07,0,0,1-.7-.31A1.69,1.69,0,0,0,72,33H59.49a1.23,1.23,0,0,1-.68-.14.47.47,0,0,1-.19-.37,1,1,0,0,1,.12-.45,3.14,3.14,0,0,1,.37-.59L72.56,13.12l.35.31h-8.8a3.66,3.66,0,0,0-1.26.18,2,2,0,0,0-.84.62,6.75,6.75,0,0,0-.77,1.24l-.66,1.43a1.37,1.37,0,0,1-.35.45.6.6,0,0,1-.41.1.51.51,0,0,1-.4-.22.58.58,0,0,1,0-.51l.93-4a1.94,1.94,0,0,1,.3-.79.56.56,0,0,1,.46-.19,1,1,0,0,1,.68.28,1.61,1.61,0,0,0,1,.27H74.51a1.23,1.23,0,0,1,.68.14.44.44,0,0,1,.19.37,1.26,1.26,0,0,1-.1.44A3.94,3.94,0,0,1,74.91,13.88Z"/><path class="cls-1" d="M95.75,20.2a1.46,1.46,0,0,1-.51,1.21,2.4,2.4,0,0,1-1.51.41H79.06v-1H91.89c.72,0,1.08-.3,1.08-.91A7.3,7.3,0,0,0,91.4,15a5.24,5.24,0,0,0-4.24-1.87,6.19,6.19,0,0,0-3.69,1.13A7.46,7.46,0,0,0,81,17.41a11.49,11.49,0,0,0-.89,4.66c0,3,.75,5.39,2.26,7a7.5,7.5,0,0,0,5.8,2.46,7.36,7.36,0,0,0,4.34-1.27,5.44,5.44,0,0,0,2.27-3.17.87.87,0,0,1,.25-.39.46.46,0,0,1,.33-.12.38.38,0,0,1,.35.18.6.6,0,0,1,.09.42,6,6,0,0,1-1.32,3.15,7.84,7.84,0,0,1-2.93,2.26,9.61,9.61,0,0,1-4.05.83,10.33,10.33,0,0,1-5.25-1.3,8.79,8.79,0,0,1-3.47-3.65A12,12,0,0,1,77.55,23a12.42,12.42,0,0,1,1.23-5.57,10,10,0,0,1,3.46-3.95A9.41,9.41,0,0,1,87.49,12a8.62,8.62,0,0,1,4.26,1,7.56,7.56,0,0,1,2.93,2.9A8.43,8.43,0,0,1,95.75,20.2Z"/><path class="cls-1" d="M103.94,13l.08,5.37V30.59a1.05,1.05,0,0,0,.28.75,1.27,1.27,0,0,0,.83.33l2.13.27a1,1,0,0,1,.57.17.44.44,0,0,1,.19.38.41.41,0,0,1-.19.36.94.94,0,0,1-.54.13H99.14a.84.84,0,0,1-.51-.13.43.43,0,0,1-.18-.36.4.4,0,0,1,.18-.33,1.35,1.35,0,0,1,.51-.2l1.29-.24a1.5,1.5,0,0,0,.77-.36,1,1,0,0,0,.27-.75V15.39a.91.91,0,0,0-.16-.61.75.75,0,0,0-.57-.21l-1.95,0a.93.93,0,0,1-.5-.12.32.32,0,0,1-.15-.28.45.45,0,0,1,.15-.32,1.25,1.25,0,0,1,.52-.25l3-1a7.56,7.56,0,0,1,.9-.28,2.45,2.45,0,0,1,.52-.08.63.63,0,0,1,.49.19A1.13,1.13,0,0,1,103.94,13Zm-.67,8.61a13,13,0,0,1,1-5.2,8.19,8.19,0,0,1,2.47-3.31A5.13,5.13,0,0,1,109.84,12a4.1,4.1,0,0,1,2.93,1,3.31,3.31,0,0,1,1,2.52,2.29,2.29,0,0,1-.42,1.45,1.32,1.32,0,0,1-1.07.53,1.48,1.48,0,0,1-1.1-.42,1.61,1.61,0,0,1-.41-1.16v-.68a1.63,1.63,0,0,0-.4-1.22,1.83,1.83,0,0,0-1.35-.4,3.75,3.75,0,0,0-2.36.93,6.68,6.68,0,0,0-1.92,2.75,11.9,11.9,0,0,0-.76,4.53Z"/><path class="cls-1" d="M125.5,12a10.48,10.48,0,0,1,5.4,1.38,9.79,9.79,0,0,1,3.68,3.79,11.33,11.33,0,0,1,1.33,5.57,11.28,11.28,0,0,1-1.33,5.53,9.88,9.88,0,0,1-3.68,3.8,10.51,10.51,0,0,1-5.46,1.39,10.38,10.38,0,0,1-5.38-1.38,9.77,9.77,0,0,1-3.69-3.8A11.38,11.38,0,0,1,115,22.71a11.28,11.28,0,0,1,1.33-5.55A9.79,9.79,0,0,1,120,13.37,10.6,10.6,0,0,1,125.5,12ZM127,32.1a6.82,6.82,0,0,0,3.82-1.68,7.32,7.32,0,0,0,2.08-3.61,12.46,12.46,0,0,0,.14-5.1,12.5,12.5,0,0,0-1.72-4.91,7.28,7.28,0,0,0-7.44-3.46A6.82,6.82,0,0,0,120.09,15a7.16,7.16,0,0,0-2.06,3.6,12.74,12.74,0,0,0-.16,5.09,12.48,12.48,0,0,0,1.72,4.93A7.28,7.28,0,0,0,127,32.1Z"/><path class="cls-1" d="M156.32,17.27a1.85,1.85,0,0,1-.43,1.26,1.42,1.42,0,0,1-1.12.5,1.5,1.5,0,0,1-1.13-.43,1.58,1.58,0,0,1-.42-1.17v-.65a3.2,3.2,0,0,0-1.31-2.64,5.79,5.79,0,0,0-3.64-1,6.47,6.47,0,0,0-3.76,1.13A7.43,7.43,0,0,0,142,17.41a11.17,11.17,0,0,0-.91,4.66,11.64,11.64,0,0,0,1,5.15A7.6,7.6,0,0,0,145,30.45a7.83,7.83,0,0,0,4.15,1.11,6.88,6.88,0,0,0,4.17-1.26,5.38,5.38,0,0,0,2.18-3.11,1.46,1.46,0,0,1,.25-.4.54.54,0,0,1,.35-.11.35.35,0,0,1,.34.18.63.63,0,0,1,.08.38,6.41,6.41,0,0,1-1.31,3.16,7.55,7.55,0,0,1-2.82,2.23,9.07,9.07,0,0,1-3.9.82,10.26,10.26,0,0,1-5.26-1.3,8.71,8.71,0,0,1-3.46-3.65A11.83,11.83,0,0,1,138.51,23a11.92,11.92,0,0,1,1.27-5.54,10.09,10.09,0,0,1,3.58-4A9.75,9.75,0,0,1,148.74,12a10.2,10.2,0,0,1,4,.74,6.36,6.36,0,0,1,2.61,2A4.19,4.19,0,0,1,156.32,17.27Z"/><path class="cls-1" d="M164.16,13V30.59a1.08,1.08,0,0,0,.26.76,1.33,1.33,0,0,0,.76.37l1.22.22a1.25,1.25,0,0,1,.54.2.41.41,0,0,1,.19.35.41.41,0,0,1-.19.36,1,1,0,0,1-.56.13h-7.1a.8.8,0,0,1-.51-.13.43.43,0,0,1-.18-.36.4.4,0,0,1,.18-.33,1.23,1.23,0,0,1,.51-.2l1.28-.24a1.73,1.73,0,0,0,.77-.37,1,1,0,0,0,.28-.74V15.39a1,1,0,0,0-.17-.62.68.68,0,0,0-.57-.2l-2,0a.94.94,0,0,1-.5-.13.33.33,0,0,1-.14-.27.45.45,0,0,1,.14-.33,1.33,1.33,0,0,1,.52-.24l3.07-1c.35-.12.64-.21.86-.26a2.62,2.62,0,0,1,.53-.08.77.77,0,0,1,.57.2A.9.9,0,0,1,164.16,13Zm-1.8-5.92a2.26,2.26,0,0,1-1.62-.62,2.09,2.09,0,0,1-.64-1.56,2,2,0,0,1,.64-1.54,2.25,2.25,0,0,1,1.62-.61,2.34,2.34,0,0,1,1.66.62,2,2,0,0,1,.67,1.53A2,2,0,0,1,164,6.47,2.34,2.34,0,0,1,162.36,7.09Z"/><path class="cls-1" d="M174.74,13l.09,5.37V30.59a1,1,0,0,0,.28.75,1.24,1.24,0,0,0,.83.33l2.13.27a1,1,0,0,1,.57.17.45.45,0,0,1,.18.38.43.43,0,0,1-.18.36,1,1,0,0,1-.55.13H170a.84.84,0,0,1-.51-.13.43.43,0,0,1-.18-.36.4.4,0,0,1,.18-.33A1.35,1.35,0,0,1,170,32l1.29-.24a1.43,1.43,0,0,0,.76-.36,1,1,0,0,0,.28-.75V15.39a.91.91,0,0,0-.17-.61.74.74,0,0,0-.56-.21l-2,0a1,1,0,0,1-.5-.12.34.34,0,0,1-.14-.28.49.49,0,0,1,.14-.32,1.3,1.3,0,0,1,.53-.25l3-1a8.14,8.14,0,0,1,.89-.28,2.52,2.52,0,0,1,.53-.08.59.59,0,0,1,.48.19A1,1,0,0,1,174.74,13Zm-.66,8.61a12.78,12.78,0,0,1,.95-5.2,8.26,8.26,0,0,1,2.46-3.31A5.17,5.17,0,0,1,180.64,12a4.07,4.07,0,0,1,2.93,1,3.28,3.28,0,0,1,1.05,2.52,2.24,2.24,0,0,1-.43,1.45,1.3,1.3,0,0,1-1.06.53A1.46,1.46,0,0,1,182,17a1.61,1.61,0,0,1-.41-1.16v-.68a1.63,1.63,0,0,0-.4-1.22,1.86,1.86,0,0,0-1.35-.4,3.79,3.79,0,0,0-2.37.93,6.76,6.76,0,0,0-1.91,2.75,11.71,11.71,0,0,0-.76,4.53Z"/><path class="cls-1" d="M203.68,17.27a1.86,1.86,0,0,1-.44,1.26,1.41,1.41,0,0,1-1.12.5A1.5,1.5,0,0,1,201,18.6a1.58,1.58,0,0,1-.42-1.17v-.65a3.2,3.2,0,0,0-1.31-2.64,5.77,5.77,0,0,0-3.64-1,6.47,6.47,0,0,0-3.76,1.13,7.5,7.5,0,0,0-2.54,3.16,11.17,11.17,0,0,0-.91,4.66,11.64,11.64,0,0,0,1,5.15,7.56,7.56,0,0,0,2.87,3.23,7.78,7.78,0,0,0,4.15,1.11,6.92,6.92,0,0,0,4.17-1.26,5.36,5.36,0,0,0,2.17-3.11,1.45,1.45,0,0,1,.26-.4.5.5,0,0,1,.34-.11.35.35,0,0,1,.34.18.56.56,0,0,1,.08.38,6.41,6.41,0,0,1-1.31,3.16,7.55,7.55,0,0,1-2.82,2.23,9.07,9.07,0,0,1-3.9.82,10.26,10.26,0,0,1-5.26-1.3,8.77,8.77,0,0,1-3.46-3.65A12,12,0,0,1,185.86,23a11.92,11.92,0,0,1,1.27-5.54,10.24,10.24,0,0,1,3.58-4A9.75,9.75,0,0,1,196.09,12a10.14,10.14,0,0,1,4,.74,6.46,6.46,0,0,1,2.62,2A4.25,4.25,0,0,1,203.68,17.27Z"/><path class="cls-1" d="M211.51,1.41V30.59a1,1,0,0,0,.27.76,1.27,1.27,0,0,0,.75.37l1.22.22a1.25,1.25,0,0,1,.54.2.41.41,0,0,1,.19.35.41.41,0,0,1-.19.36,1,1,0,0,1-.56.13h-7.1a.84.84,0,0,1-.51-.13.43.43,0,0,1-.18-.36.4.4,0,0,1,.18-.33,1.35,1.35,0,0,1,.51-.2l1.29-.24a1.69,1.69,0,0,0,.76-.37.94.94,0,0,0,.28-.74V3.76a1,1,0,0,0-.17-.62.67.67,0,0,0-.56-.2l-2,0a1.08,1.08,0,0,1-.5-.13.32.32,0,0,1-.14-.27.49.49,0,0,1,.14-.33,1.3,1.3,0,0,1,.53-.25l3.06-1a8.52,8.52,0,0,1,.86-.25,3.15,3.15,0,0,1,.54-.06.73.73,0,0,1,.56.19A.81.81,0,0,1,211.51,1.41Z"/><path class="cls-1" d="M234.83,20.2a1.46,1.46,0,0,1-.51,1.21,2.39,2.39,0,0,1-1.51.41H218.14v-1H231c.72,0,1.09-.3,1.09-.91A7.3,7.3,0,0,0,230.48,15a5.24,5.24,0,0,0-4.24-1.87,6.23,6.23,0,0,0-3.69,1.13,7.54,7.54,0,0,0-2.48,3.16,11.5,11.5,0,0,0-.88,4.66c0,3,.75,5.39,2.25,7a7.5,7.5,0,0,0,5.8,2.46,7.34,7.34,0,0,0,4.34-1.27,5.4,5.4,0,0,0,2.27-3.17,1,1,0,0,1,.25-.39.48.48,0,0,1,.33-.12.4.4,0,0,1,.36.18.73.73,0,0,1,.09.42,6.14,6.14,0,0,1-1.33,3.15,7.81,7.81,0,0,1-2.92,2.26,9.68,9.68,0,0,1-4,.83,10.27,10.27,0,0,1-5.25-1.3,8.73,8.73,0,0,1-3.47-3.65A11.83,11.83,0,0,1,216.64,23a12.42,12.42,0,0,1,1.23-5.57,9.9,9.9,0,0,1,3.46-3.95A9.39,9.39,0,0,1,226.58,12a8.67,8.67,0,0,1,4.26,1,7.63,7.63,0,0,1,2.93,2.9A8.43,8.43,0,0,1,234.83,20.2Z"/><path class="cls-1" d="M29.88,21.75a13.71,13.71,0,0,1,8.38,2.84A19.18,19.18,0,0,0,39,19.47,19.48,19.48,0,1,0,16.49,38.72a14.08,14.08,0,0,1-.38-3.2A13.77,13.77,0,0,1,29.88,21.75Z"/><path class="cls-1" d="M38.26,24.59A19.47,19.47,0,0,1,16.49,38.72,13.77,13.77,0,1,0,38.26,24.59Z"/></g></g></svg>