<?xml version="1.0" encoding="UTF-8" standalone="no"?>
<!-- Generator: Adobe Illustrator 25.0.0, SVG Export Plug-In . SVG Version: 6.00 Build 0)  -->

<svg
   xmlns:dc="http://purl.org/dc/elements/1.1/"
   xmlns:cc="http://creativecommons.org/ns#"
   xmlns:rdf="http://www.w3.org/1999/02/22-rdf-syntax-ns#"
   xmlns:svg="http://www.w3.org/2000/svg"
   xmlns="http://www.w3.org/2000/svg"
   xmlns:sodipodi="http://sodipodi.sourceforge.net/DTD/sodipodi-0.dtd"
   xmlns:inkscape="http://www.inkscape.org/namespaces/inkscape"
   version="1.1"
   id="svg2"
   inkscape:version="0.92.3 (2405546, 2018-03-11)"
   sodipodi:docname="logo.svg"
   x="0px"
   y="0px"
   viewBox="0 0 166 49.714868"
   xml:space="preserve"
   width="166"
   height="49.71487"><metadata
   id="metadata75"><rdf:RDF><cc:Work
       rdf:about=""><dc:format>image/svg+xml</dc:format><dc:type
         rdf:resource="http://purl.org/dc/dcmitype/StillImage" /><dc:title></dc:title></cc:Work></rdf:RDF></metadata><defs
   id="defs73">
	
	
	
	

		
		
		
		
		
		
		
		
		
		
		
		
		
		
		
		
		
	</defs><sodipodi:namedview
   pagecolor="#ffffff"
   bordercolor="#666666"
   borderopacity="1"
   objecttolerance="10"
   gridtolerance="10"
   guidetolerance="10"
   inkscape:pageopacity="0"
   inkscape:pageshadow="2"
   inkscape:window-width="1863"
   inkscape:window-height="1025"
   id="namedview71"
   showgrid="false"
   inkscape:zoom="1"
   inkscape:cx="-17.38999"
   inkscape:cy="71.586782"
   inkscape:window-x="57"
   inkscape:window-y="27"
   inkscape:window-maximized="1"
   inkscape:current-layer="svg2"
   fit-margin-top="0"
   fit-margin-left="0"
   fit-margin-right="0"
   fit-margin-bottom="0" />
<style
   type="text/css"
   id="style2">
	.st0{fill:#0000FF;}
	.st1{fill:#166DB7;}
	.st2{fill:#0E65AF;}
	.st3{fill:#005BA8;}
	.st4{fill:#1073CC;}
	.st5{fill:#4697D8;}
	.st6{fill:#000080;}
	.st7{fill:#000080;stroke:#000080;stroke-width:0.9826;}
	.st8{fill:#000080;stroke:#000080;stroke-width:1.256;}
	.st9{fill:#A37D64;}
	.st10{fill:#685441;}
</style>
<g
   id="g1004"
   transform="matrix(0.85128205,0,0,0.85128205,-4.0861538,-6.0010256)"
   style="fill:#ffffff"><path
     style="fill:#ffffff"
     inkscape:connector-curvature="0"
     id="path4"
     d="M 87.8,34 H 83.7 L 80.8,28.6 C 80.6,28.2 80.3,27.9 79.9,27.7 79.5,27.5 79.1,27.4 78.6,27.4 H 76.8 V 34 H 73.1 V 17 h 7.8 c 2,0 3.5,0.4 4.5,1.3 1,0.9 1.5,2.1 1.5,3.8 0,1.3 -0.4,2.4 -1.1,3.2 -0.7,0.9 -1.7,1.4 -3,1.7 0.9,0.2 1.6,0.9 2.2,1.9 z M 82.7,24 c 0.5,-0.4 0.7,-1 0.7,-1.8 0,-0.8 -0.2,-1.4 -0.7,-1.8 -0.5,-0.4 -1.3,-0.6 -2.3,-0.6 h -3.6 v 4.7 h 3.6 c 1.1,0.1 1.8,-0.1 2.3,-0.5 z"
     class="st10" /><path
     style="fill:#ffffff"
     inkscape:connector-curvature="0"
     id="path6"
     d="m 99,23.1 c 0.8,0.8 1.3,2.1 1.3,3.9 v 7 h -3.4 v -1.8 c -0.2,0.6 -0.6,1.1 -1.2,1.4 -0.6,0.3 -1.2,0.5 -2,0.5 -0.8,0 -1.5,-0.2 -2.2,-0.5 -0.6,-0.3 -1.2,-0.8 -1.5,-1.3 -0.4,-0.6 -0.6,-1.2 -0.6,-1.9 0,-0.9 0.2,-1.5 0.7,-2 0.5,-0.5 1.1,-0.9 2.1,-1.1 1,-0.2 2.3,-0.3 4,-0.3 h 0.6 v -0.4 c 0,-0.7 -0.2,-1.2 -0.5,-1.5 -0.3,-0.3 -0.8,-0.4 -1.6,-0.4 -0.6,0 -1.2,0.1 -1.9,0.3 -0.7,0.2 -1.4,0.5 -2,0.9 l -1,-2.4 c 0.7,-0.4 1.5,-0.8 2.5,-1 1,-0.3 1.9,-0.4 2.7,-0.4 1.9,-0.2 3.2,0.2 4,1 z m -2.9,7.8 c 0.4,-0.5 0.6,-1.1 0.6,-1.8 v -0.4 h -0.4 c -1.3,0 -2.2,0.1 -2.7,0.3 -0.5,0.2 -0.8,0.6 -0.8,1.1 0,0.4 0.1,0.8 0.4,1.1 0.3,0.3 0.7,0.4 1.1,0.4 0.8,0.1 1.4,-0.2 1.8,-0.7 z"
     class="st10" /><path
     style="fill:#ffffff"
     inkscape:connector-curvature="0"
     id="path8"
     d="m 103.1,16.5 h 3.9 v 3.4 h -3.9 z M 103.3,34 V 22.2 h 3.6 V 34 Z"
     class="st10" /><path
     style="fill:#ffffff"
     inkscape:connector-curvature="0"
     id="path10"
     d="m 120.5,23.1 c 0.7,0.8 1,2.1 1,3.7 V 34 h -3.6 v -7 c 0,-0.8 -0.1,-1.4 -0.4,-1.8 -0.3,-0.4 -0.8,-0.6 -1.4,-0.6 -0.8,0 -1.4,0.2 -1.8,0.7 -0.5,0.5 -0.7,1.1 -0.7,1.9 V 34 H 110 V 22.2 h 3.5 v 1.7 c 0.4,-0.6 1,-1.1 1.6,-1.5 0.7,-0.3 1.4,-0.5 2.2,-0.5 1.4,0 2.5,0.4 3.2,1.2 z"
     class="st10" /><path
     style="fill:#ffffff"
     inkscape:connector-curvature="0"
     id="path12"
     d="m 142,23.1 c 0.7,0.8 1,2.1 1,3.7 V 34 h -3.6 v -7 c 0,-0.8 -0.1,-1.4 -0.4,-1.7 -0.3,-0.3 -0.7,-0.5 -1.3,-0.5 -0.7,0 -1.2,0.2 -1.6,0.7 -0.4,0.5 -0.6,1.2 -0.6,2 V 34 H 132 v -7 c 0,-0.8 -0.1,-1.4 -0.4,-1.7 -0.3,-0.3 -0.7,-0.5 -1.3,-0.5 -0.7,0 -1.2,0.2 -1.6,0.7 -0.4,0.5 -0.6,1.2 -0.6,2 V 34 h -3.6 V 22.2 h 3.5 v 1.6 c 0.4,-0.6 0.9,-1.1 1.5,-1.4 0.6,-0.3 1.3,-0.5 2.1,-0.5 1.7,0 2.9,0.7 3.5,2.2 0.4,-0.7 0.9,-1.2 1.6,-1.6 0.7,-0.4 1.4,-0.6 2.3,-0.6 1.4,0 2.4,0.4 3,1.2 z"
     class="st10" /><path
     style="fill:#ffffff"
     inkscape:connector-curvature="0"
     id="path14"
     d="m 155.2,23.1 c 0.8,0.8 1.3,2.1 1.3,3.9 v 7 H 153 v -1.8 c -0.2,0.6 -0.6,1.1 -1.2,1.4 -0.6,0.3 -1.2,0.5 -2,0.5 -0.8,0 -1.5,-0.2 -2.2,-0.5 -0.6,-0.3 -1.2,-0.8 -1.5,-1.3 -0.4,-0.6 -0.6,-1.2 -0.6,-1.9 0,-0.9 0.2,-1.5 0.7,-2 0.5,-0.5 1.1,-0.9 2.1,-1.1 1,-0.2 2.3,-0.3 4,-0.3 h 0.6 v -0.4 c 0,-0.7 -0.2,-1.2 -0.5,-1.5 -0.3,-0.3 -0.8,-0.4 -1.6,-0.4 -0.6,0 -1.2,0.1 -1.9,0.3 -0.7,0.2 -1.4,0.5 -2,0.9 l -1,-2.4 c 0.7,-0.4 1.5,-0.8 2.5,-1 1,-0.3 1.9,-0.4 2.7,-0.4 1.9,-0.2 3.2,0.2 4.1,1 z m -2.9,7.8 c 0.4,-0.5 0.6,-1.1 0.6,-1.8 v -0.4 h -0.4 c -1.3,0 -2.2,0.1 -2.7,0.3 -0.5,0.2 -0.8,0.6 -0.8,1.1 0,0.4 0.1,0.8 0.4,1.1 0.3,0.3 0.7,0.4 1.1,0.4 0.8,0.1 1.4,-0.2 1.8,-0.7 z"
     class="st10" /><path
     style="fill:#ffffff"
     inkscape:connector-curvature="0"
     id="path16"
     d="m 167.1,31.4 -0.2,2.6 c -0.5,0.1 -0.9,0.1 -1.4,0.1 -1.8,0 -3.1,-0.4 -3.9,-1.2 -0.8,-0.8 -1.2,-2 -1.2,-3.6 v -4.5 h -2.2 v -2.7 h 2.2 v -3.5 h 3.6 v 3.5 h 3 v 2.7 h -3 v 4.5 c 0,1.4 0.7,2.1 2,2.1 0.3,0.1 0.7,0.1 1.1,0 z"
     class="st10" /><path
     style="fill:#ffffff"
     inkscape:connector-curvature="0"
     id="path18"
     d="m 176.4,31.4 -0.2,2.6 c -0.5,0.1 -0.9,0.1 -1.4,0.1 -1.8,0 -3.1,-0.4 -3.9,-1.2 -0.8,-0.8 -1.2,-2 -1.2,-3.6 v -4.5 h -2.2 v -2.7 h 2.2 v -3.5 h 3.6 v 3.5 h 3 v 2.7 h -3 v 4.5 c 0,1.4 0.7,2.1 2,2.1 0.3,0.1 0.7,0.1 1.1,0 z"
     class="st10" /><path
     style="fill:#ffffff"
     inkscape:connector-curvature="0"
     id="path20"
     d="m 188.9,28.8 h -7.7 c 0.1,0.9 0.4,1.6 0.9,2.1 0.5,0.4 1.2,0.6 2.1,0.6 0.6,0 1.2,-0.1 1.8,-0.3 0.6,-0.2 1.1,-0.5 1.6,-0.9 l 1,2.4 c -0.6,0.4 -1.3,0.8 -2.1,1.1 -0.8,0.3 -1.7,0.4 -2.5,0.4 -2,0 -3.5,-0.5 -4.7,-1.6 -1.1,-1.1 -1.7,-2.6 -1.7,-4.5 0,-1.2 0.2,-2.3 0.7,-3.2 0.5,-0.9 1.2,-1.7 2.1,-2.2 0.9,-0.5 1.9,-0.8 3,-0.8 1.6,0 3,0.5 3.9,1.6 0.9,1.1 1.5,2.5 1.5,4.4 v 0.9 z m -7,-3.8 c -0.4,0.4 -0.7,1.1 -0.8,1.9 h 4.6 c 0,-0.8 -0.3,-1.5 -0.6,-1.9 -0.4,-0.4 -0.9,-0.6 -1.6,-0.6 -0.6,0 -1.2,0.2 -1.6,0.6 z"
     class="st10" /><path
     style="fill:#ffffff"
     inkscape:connector-curvature="0"
     id="path22"
     d="m 199.8,24.9 -2,0.2 c -1,0.1 -1.7,0.4 -2.1,0.9 -0.4,0.5 -0.6,1.1 -0.6,1.9 V 34 h -3.6 V 22.2 h 3.5 v 2 c 0.6,-1.4 1.8,-2.1 3.7,-2.2 l 1.1,-0.1 z"
     class="st10" /></g><g
   id="g60"
   transform="matrix(0.85128205,0,0,0.85128205,-4.0861538,-6.0010256)"
   style="fill:#ffffff">
		<path
   style="fill:#ffffff"
   inkscape:connector-curvature="0"
   id="path40"
   d="M 72.9,56.5 V 45.2 h 7 v 1.1 h -5.7 v 3.9 h 5.4 v 1.1 h -5.4 v 5.2 z"
   class="st10" />
		<path
   style="fill:#ffffff"
   inkscape:connector-curvature="0"
   id="path42"
   d="m 83,56.1 c -0.6,-0.3 -1,-0.8 -1.3,-1.4 -0.3,-0.6 -0.5,-1.3 -0.5,-2.1 0,-0.8 0.2,-1.5 0.5,-2.1 0.3,-0.6 0.7,-1.1 1.3,-1.4 0.6,-0.3 1.2,-0.5 1.9,-0.5 0.7,0 1.4,0.2 2,0.5 0.6,0.3 1,0.8 1.3,1.4 0.3,0.6 0.5,1.3 0.5,2.1 0,0.8 -0.2,1.5 -0.5,2.1 -0.3,0.6 -0.7,1.1 -1.3,1.4 -0.6,0.3 -1.2,0.5 -2,0.5 -0.7,0 -1.4,-0.2 -1.9,-0.5 z m 3.7,-1.3 c 0.4,-0.5 0.6,-1.2 0.6,-2.2 0,-0.9 -0.2,-1.7 -0.6,-2.2 -0.4,-0.5 -1,-0.8 -1.8,-0.8 -0.8,0 -1.3,0.3 -1.8,0.8 -0.5,0.5 -0.6,1.3 -0.6,2.2 0,1 0.2,1.7 0.6,2.2 0.4,0.5 1,0.8 1.8,0.8 0.8,0 1.4,-0.3 1.8,-0.8 z"
   class="st10" />
		<path
   style="fill:#ffffff"
   inkscape:connector-curvature="0"
   id="path44"
   d="m 97.4,48.7 v 7.8 h -1.3 v -1.3 c -0.2,0.5 -0.6,0.8 -1,1.1 -0.4,0.2 -0.9,0.4 -1.5,0.4 -0.9,0 -1.6,-0.3 -2.1,-0.8 -0.5,-0.5 -0.7,-1.3 -0.7,-2.3 v -4.8 h 1.3 v 4.8 c 0,0.7 0.1,1.2 0.4,1.5 0.3,0.3 0.7,0.5 1.3,0.5 0.7,0 1.2,-0.2 1.6,-0.7 0.4,-0.5 0.6,-1 0.6,-1.8 v -4.4 z"
   class="st10" />
		<path
   style="fill:#ffffff"
   inkscape:connector-curvature="0"
   id="path46"
   d="m 106.8,51.6 v 4.9 h -1.3 v -4.8 c 0,-0.7 -0.1,-1.3 -0.4,-1.6 -0.3,-0.3 -0.7,-0.5 -1.4,-0.5 -0.7,0 -1.3,0.2 -1.7,0.7 -0.4,0.4 -0.6,1 -0.6,1.8 v 4.5 h -1.3 v -7.8 h 1.3 V 50 c 0.3,-0.5 0.6,-0.8 1.1,-1.1 0.5,-0.2 1,-0.4 1.6,-0.4 1.7,0 2.7,1 2.7,3.1 z"
   class="st10" />
		<path
   style="fill:#ffffff"
   inkscape:connector-curvature="0"
   id="path48"
   d="M 116.3,45.2 V 56.5 H 115 V 55 c -0.2,0.5 -0.6,0.9 -1,1.1 -0.5,0.3 -1,0.4 -1.6,0.4 -0.7,0 -1.3,-0.2 -1.8,-0.5 -0.5,-0.3 -0.9,-0.8 -1.2,-1.4 -0.3,-0.6 -0.4,-1.3 -0.4,-2.1 0,-0.8 0.1,-1.5 0.4,-2.1 0.3,-0.6 0.7,-1.1 1.2,-1.4 0.5,-0.3 1.1,-0.5 1.8,-0.5 0.6,0 1.1,0.1 1.6,0.4 0.5,0.3 0.8,0.6 1,1.1 v -4.8 z m -1.9,9.5 c 0.4,-0.5 0.6,-1.2 0.6,-2.2 0,-1 -0.2,-1.7 -0.6,-2.2 -0.4,-0.5 -1,-0.8 -1.8,-0.8 -0.8,0 -1.3,0.3 -1.8,0.8 -0.4,0.5 -0.6,1.2 -0.6,2.2 0,0.9 0.2,1.7 0.6,2.2 0.4,0.5 1,0.8 1.8,0.8 0.8,0 1.4,-0.2 1.8,-0.8 z"
   class="st10" />
		<path
   style="fill:#ffffff"
   inkscape:connector-curvature="0"
   id="path50"
   d="m 124.3,49.2 c 0.5,0.5 0.7,1.3 0.7,2.3 v 4.9 h -1.3 v -1.3 c -0.2,0.5 -0.5,0.8 -0.9,1.1 -0.4,0.2 -0.9,0.4 -1.4,0.4 -0.5,0 -1,-0.1 -1.4,-0.3 -0.4,-0.2 -0.8,-0.5 -1,-0.8 -0.2,-0.4 -0.4,-0.8 -0.4,-1.2 0,-0.6 0.1,-1 0.4,-1.4 0.3,-0.3 0.8,-0.6 1.5,-0.7 0.7,-0.1 1.6,-0.2 2.8,-0.2 h 0.4 v -0.5 c 0,-0.7 -0.1,-1.1 -0.4,-1.4 -0.3,-0.3 -0.7,-0.4 -1.3,-0.4 -0.9,0 -1.8,0.3 -2.7,0.8 l -0.4,-0.9 c 0.4,-0.3 0.9,-0.5 1.5,-0.7 0.6,-0.2 1.1,-0.3 1.7,-0.3 1,-0.1 1.8,0.1 2.2,0.6 z m -1.1,5.7 c 0.4,-0.4 0.6,-1 0.6,-1.7 v -0.5 h -0.3 c -0.9,0 -1.7,0 -2.1,0.1 -0.5,0.1 -0.8,0.2 -1,0.4 -0.2,0.2 -0.3,0.5 -0.3,0.8 0,0.4 0.2,0.8 0.5,1 0.3,0.3 0.7,0.4 1.1,0.4 0.6,0.2 1.1,-0.1 1.5,-0.5 z"
   class="st10" />
		<path
   style="fill:#ffffff"
   inkscape:connector-curvature="0"
   id="path52"
   d="m 131.8,55.5 -0.1,1 c -0.2,0 -0.5,0.1 -0.8,0.1 -0.9,0 -1.6,-0.2 -2.1,-0.7 -0.5,-0.5 -0.7,-1.2 -0.7,-2 v -4.1 h -1.5 v -1 h 1.5 v -2.4 h 1.3 v 2.4 h 2.2 v 1 h -2.2 v 4 c 0,1.2 0.6,1.8 1.7,1.8 0.3,-0.1 0.5,-0.1 0.7,-0.1 z"
   class="st10" />
		<path
   style="fill:#ffffff"
   inkscape:connector-curvature="0"
   id="path54"
   d="m 133.3,45.3 h 1.6 v 1.5 h -1.6 z m 0.1,11.2 v -7.8 h 1.3 v 7.8 z"
   class="st10" />
		<path
   style="fill:#ffffff"
   inkscape:connector-curvature="0"
   id="path56"
   d="m 138.7,56.1 c -0.6,-0.3 -1,-0.8 -1.3,-1.4 -0.3,-0.6 -0.5,-1.3 -0.5,-2.1 0,-0.8 0.2,-1.5 0.5,-2.1 0.3,-0.6 0.7,-1.1 1.3,-1.4 0.6,-0.3 1.2,-0.5 1.9,-0.5 0.7,0 1.4,0.2 2,0.5 0.6,0.3 1,0.8 1.3,1.4 0.3,0.6 0.5,1.3 0.5,2.1 0,0.8 -0.2,1.5 -0.5,2.1 -0.3,0.6 -0.7,1.1 -1.3,1.4 -0.6,0.3 -1.2,0.5 -2,0.5 -0.7,0 -1.4,-0.2 -1.9,-0.5 z m 3.7,-1.3 c 0.4,-0.5 0.6,-1.2 0.6,-2.2 0,-0.9 -0.2,-1.7 -0.6,-2.2 -0.4,-0.5 -1,-0.8 -1.8,-0.8 -0.8,0 -1.3,0.3 -1.8,0.8 -0.5,0.5 -0.6,1.3 -0.6,2.2 0,1 0.2,1.7 0.6,2.2 0.4,0.5 1,0.8 1.8,0.8 0.8,0 1.4,-0.3 1.8,-0.8 z"
   class="st10" />
		<path
   style="fill:#ffffff"
   inkscape:connector-curvature="0"
   id="path58"
   d="m 153.2,51.6 v 4.9 h -1.3 v -4.8 c 0,-0.7 -0.1,-1.3 -0.4,-1.6 -0.3,-0.3 -0.7,-0.5 -1.4,-0.5 -0.7,0 -1.3,0.2 -1.7,0.7 -0.4,0.4 -0.6,1 -0.6,1.8 v 4.5 h -1.3 v -7.8 h 1.3 V 50 c 0.3,-0.5 0.6,-0.8 1.1,-1.1 0.5,-0.2 1,-0.4 1.6,-0.4 1.8,0 2.7,1 2.7,3.1 z"
   class="st10" />
	</g><g
   id="polygon1820_4_"
   transform="matrix(0.85128205,0,0,0.85128205,-4.0861538,-4.0010256)"
   style="fill:#ffffff">
		<polygon
   style="fill:#ffffff"
   id="polygon62"
   points="40.7,38.7 30,32.6 19.4,38.7 19.4,53 14.3,53 14.3,35.8 30,26.8 45.8,35.8 45.8,53 40.7,53 "
   class="st9" />
	</g><g
   id="path1822_4_"
   transform="matrix(0.85128205,0,0,0.85128205,-4.0861538,-4.0010256)"
   style="fill:#ffffff">
		
			<path
   style="fill:#ffffff"
   id="path65"
   d="M 30.1,4.7 4.8,19.3 V 48.5 L 30.1,63.1 55.4,48.5 V 19.3 Z m 0,5.5 L 50.6,22 V 45.7 L 30.1,57.6 9.5,45.7 V 22 Z"
   class="st10"
   inkscape:export-ydpi="161.67"
   inkscape:export-xdpi="161.67"
   inkscape:export-filename="/var/www/zerodha/rainmatter/images/full-logo.png"
   inkscape:connector-curvature="0" />
	</g>
</svg>