<svg xmlns="http://www.w3.org/2000/svg" xmlns:xlink="http://www.w3.org/1999/xlink" width="208" height="60" viewBox="0 0 208 60">
  <defs>
    <clipPath id="clip-Artboard_4">
      <rect width="208" height="60"/>
    </clipPath>
  </defs>
  <g id="Artboard_4" data-name="Artboard – 4" clip-path="url(#clip-Artboard_4)">
    <g id="Group_2525" data-name="Group 2525" transform="translate(-6.37 -9)">
      <g id="Group_2524" data-name="Group 2524" transform="translate(-3137.63 -1166)">
        <path id="path940" d="M6.048,34.51V21.091L18.3,14.07l12.326,7.021V34.51H26.644V23.354L18.3,18.6l-8.27,4.759V34.51Z" transform="translate(3155.363 1185.171)" fill="#a37d64"/>
        <path id="path942" d="M19.738,0,0,11.39V34.17L19.738,45.56,39.476,34.17V11.39Zm0,4.291L35.731,13.5V31.986L19.738,41.27,3.666,31.985V13.5Z" transform="translate(3154 1182)" fill="#685441"/>
      </g>
      <g id="Group_2523" data-name="Group 2523" transform="translate(-3126 -1168.742)">
        <g id="g958" transform="translate(3076.898 1182)">
          <path id="path944" d="M120.238,44.732v-7.8h4.142l-.124.86h-2.942v2.659h2.546V41.3h-2.546v3.429Z" fill="#b3b3b3"/>
          <path id="use946" d="M127.582,38.632a2.381,2.381,0,0,1,1.946.837,3.43,3.43,0,0,1,.7,2.275,4,4,0,0,1-.317,1.641,2.526,2.526,0,0,1-.917,1.1,2.583,2.583,0,0,1-1.426.385,2.416,2.416,0,0,1-1.958-.837,3.43,3.43,0,0,1-.7-2.275,3.926,3.926,0,0,1,.317-1.63,2.446,2.446,0,0,1,.917-1.1,2.549,2.549,0,0,1,1.437-.4Zm0,.837q-1.55,0-1.55,2.286t1.539,2.275q1.539,0,1.539-2.286T127.582,39.469Z" fill="#b3b3b3"/>
          <path id="path948" d="M136.386,44.732h-.894l-.079-.928a2.325,2.325,0,0,1-.781.815,2.156,2.156,0,0,1-1.075.249,1.585,1.585,0,0,1-1.222-.475,1.907,1.907,0,0,1-.441-1.347V38.768h1.041v4.164a1.377,1.377,0,0,0,.215.871.882.882,0,0,0,.7.249,1.773,1.773,0,0,0,1.494-1.03V38.767h1.041Z" fill="#b3b3b3"/>
          <path id="use950" d="M141.343,38.632a1.643,1.643,0,0,1,1.267.487,1.856,1.856,0,0,1,.464,1.335v4.278h-1.041V40.6a1.32,1.32,0,0,0-.238-.894.9.9,0,0,0-.7-.26,1.356,1.356,0,0,0-.837.272,2.836,2.836,0,0,0-.679.781v4.232h-1.041V38.769h.894l.091.883a2.382,2.382,0,0,1,.781-.747,2.058,2.058,0,0,1,1.041-.272Z" fill="#b3b3b3"/>
          <path id="path952" d="M149.785,36.369v8.363h-.917l-.1-.826a2.2,2.2,0,0,1-.736.713,1.968,1.968,0,0,1-.985.249,1.931,1.931,0,0,1-1.663-.837,3.85,3.85,0,0,1-.588-2.252,4.392,4.392,0,0,1,.283-1.63,2.484,2.484,0,0,1,.815-1.109,1.991,1.991,0,0,1,1.245-.407,2.139,2.139,0,0,1,1.607.736V36.246Zm-2.512,7.672a1.493,1.493,0,0,0,.815-.215,2.631,2.631,0,0,0,.656-.668v-2.92a2.131,2.131,0,0,0-.634-.577,1.385,1.385,0,0,0-.747-.2,1.222,1.222,0,0,0-1.075.577,3.2,3.2,0,0,0-.373,1.72,3.33,3.33,0,0,0,.351,1.72,1.118,1.118,0,0,0,1.007.566Zm8.679-.7a.966.966,0,0,0,.124.543.768.768,0,0,0,.373.26l-.238.724a1.6,1.6,0,0,1-.747-.26,1.193,1.193,0,0,1-.419-.634,2,2,0,0,1-1.777.894,1.9,1.9,0,0,1-1.392-.5,1.739,1.739,0,0,1-.509-1.3,1.715,1.715,0,0,1,.679-1.46,3.229,3.229,0,0,1,1.946-.509h.917v-.441a1.157,1.157,0,0,0-.306-.9,1.382,1.382,0,0,0-.939-.272,5.255,5.255,0,0,0-1.607.317l-.26-.758a6.008,6.008,0,0,1,2.06-.407,2.138,2.138,0,0,1,1.573.521,1.949,1.949,0,0,1,.521,1.46Zm-2.444.747a1.554,1.554,0,0,0,1.4-.928V41.79h-.781q-1.652,0-1.652,1.222a1.118,1.118,0,0,0,.26.8A1.017,1.017,0,0,0,153.508,44.087Zm7.593.373a2.29,2.29,0,0,1-1.335.407,1.606,1.606,0,0,1-1.188-.43,1.769,1.769,0,0,1-.419-1.267v-3.6h-1.041v-.8h1.041V37.421L159.2,37.3v1.471h1.415l-.113.8h-1.3v3.553a1.157,1.157,0,0,0,.158.679.683.683,0,0,0,.554.2,1.7,1.7,0,0,0,.792-.238Zm2.116-5.692v5.964h-1.041V38.768Zm-.532-2.863a.72.72,0,0,1,.532.2.737.737,0,0,1,0,1.018.745.745,0,0,1-.532.192.73.73,0,0,1-.521-.192.737.737,0,0,1,0-1.018A.706.706,0,0,1,162.685,35.905Z" fill="#b3b3b3"/>
          <path id="use954" d="M127.582,38.632a2.381,2.381,0,0,1,1.946.837,3.43,3.43,0,0,1,.7,2.275,4,4,0,0,1-.317,1.641,2.526,2.526,0,0,1-.917,1.1,2.583,2.583,0,0,1-1.426.385,2.416,2.416,0,0,1-1.958-.837,3.43,3.43,0,0,1-.7-2.275,3.926,3.926,0,0,1,.317-1.63,2.446,2.446,0,0,1,.917-1.1,2.549,2.549,0,0,1,1.437-.4Zm0,.837q-1.55,0-1.55,2.286t1.539,2.275q1.539,0,1.539-2.286T127.582,39.469Z" transform="translate(40.026)" fill="#b3b3b3"/>
          <path id="use956" d="M141.343,38.632a1.643,1.643,0,0,1,1.267.487,1.856,1.856,0,0,1,.464,1.335v4.278h-1.041V40.6a1.32,1.32,0,0,0-.238-.894.9.9,0,0,0-.7-.26,1.356,1.356,0,0,0-.837.272,2.836,2.836,0,0,0-.679.781v4.232h-1.041V38.769h.894l.091.883a2.382,2.382,0,0,1,.781-.747,2.058,2.058,0,0,1,1.041-.272Z" transform="translate(33.439)" fill="#b3b3b3"/>
        </g>
        <g id="g974" transform="translate(3154 1182)">
          <path id="path960" d="M48.912,20.689H46.66v7.429H43.12V9.585h5.525q7.349,0,7.349,5.445a4.93,4.93,0,0,1-.912,3.058,6.325,6.325,0,0,1-2.843,1.958l4.855,8.073H53.017Zm-2.253-2.548h2.2a3.867,3.867,0,0,0,2.548-.724,2.964,2.964,0,0,0,.885-2.387,2.515,2.515,0,0,0-.912-2.172,4.559,4.559,0,0,0-2.816-.7h-1.9Z" fill="#685441"/>
          <path id="use962" d="M69.618,24.363a2.468,2.468,0,0,0,.241,1.234,1.753,1.753,0,0,0,.831.59l-.724,2.28a4.48,4.48,0,0,1-1.985-.59A3.045,3.045,0,0,1,66.828,26.4,4.621,4.621,0,0,1,65,28.011a5.554,5.554,0,0,1-2.414.51,4.589,4.589,0,0,1-3.353-1.207A4.229,4.229,0,0,1,58,24.149a4.068,4.068,0,0,1,1.663-3.513,8.038,8.038,0,0,1,4.8-1.234h1.77V18.6a2.37,2.37,0,0,0-.644-1.9,2.941,2.941,0,0,0-2.012-.563,11.968,11.968,0,0,0-3.755.751l-.805-2.333a14.333,14.333,0,0,1,5.15-1.019q5.445,0,5.445,4.881ZM63.5,26.026a3.038,3.038,0,0,0,2.736-1.743v-2.87H64.818q-3.326,0-3.326,2.467A2.273,2.273,0,0,0,62,25.462a1.924,1.924,0,0,0,1.5.563Z" fill="#685441"/>
          <path id="path964" d="M77.208,13.93V28.118H73.775V13.93ZM75.465,6.742a2.054,2.054,0,0,1,1.556.617,1.956,1.956,0,0,1,.617,1.475,1.956,1.956,0,0,1-.617,1.475,2.1,2.1,0,0,1-1.556.59,2.161,2.161,0,0,1-1.556-.59,2,2,0,0,1-.59-1.475,2,2,0,0,1,.59-1.475,2.109,2.109,0,0,1,1.556-.617ZM88.9,13.528a3.78,3.78,0,0,1,2.95,1.153,4.4,4.4,0,0,1,1.073,3.165V28.118H89.492V18.382a2.663,2.663,0,0,0-.456-1.77,1.587,1.587,0,0,0-1.287-.51,2.558,2.558,0,0,0-1.609.563,6.188,6.188,0,0,0-1.368,1.582v9.87H81.339V13.93h2.977l.268,1.851A5.272,5.272,0,0,1,88.9,13.528Zm23.065,0a3.432,3.432,0,0,1,2.736,1.18,4.571,4.571,0,0,1,1.019,3.138V28.118h-3.433V18.382q0-2.28-1.556-2.28a2.138,2.138,0,0,0-1.448.536,6.456,6.456,0,0,0-1.234,1.609v9.87h-3.433V18.381q0-2.28-1.556-2.28a2.174,2.174,0,0,0-1.475.536,6.456,6.456,0,0,0-1.234,1.609v9.87H96.92V13.93H99.9l.268,1.851a4.86,4.86,0,0,1,4.1-2.253,3.5,3.5,0,0,1,2.119.644,3.426,3.426,0,0,1,1.314,1.743,6.7,6.7,0,0,1,1.877-1.77,4.609,4.609,0,0,1,2.387-.617Z" fill="#685441"/>
          <path id="use966" d="M69.618,24.363a2.468,2.468,0,0,0,.241,1.234,1.753,1.753,0,0,0,.831.59l-.724,2.28a4.48,4.48,0,0,1-1.985-.59A3.045,3.045,0,0,1,66.828,26.4,4.621,4.621,0,0,1,65,28.011a5.554,5.554,0,0,1-2.414.51,4.589,4.589,0,0,1-3.353-1.207A4.229,4.229,0,0,1,58,24.149a4.068,4.068,0,0,1,1.663-3.513,8.038,8.038,0,0,1,4.8-1.234h1.77V18.6a2.37,2.37,0,0,0-.644-1.9,2.941,2.941,0,0,0-2.012-.563,11.968,11.968,0,0,0-3.755.751l-.805-2.333a14.333,14.333,0,0,1,5.15-1.019q5.445,0,5.445,4.881ZM63.5,26.026a3.038,3.038,0,0,0,2.736-1.743v-2.87H64.818q-3.326,0-3.326,2.467A2.273,2.273,0,0,0,62,25.462a1.924,1.924,0,0,0,1.5.563Z" transform="translate(60.587)" fill="#685441"/>
          <path id="use968" d="M142.489,27.448a5.482,5.482,0,0,1-1.69.805,6.623,6.623,0,0,1-1.877.268,4.287,4.287,0,0,1-3.192-1.18,4.98,4.98,0,0,1-1.073-3.46V16.4h-2.226V13.93h2.226V10.792l3.433-.4v3.54h3.3L141.04,16.4h-2.95v7.4a2.508,2.508,0,0,0,.349,1.5,1.406,1.406,0,0,0,1.153.456,3.5,3.5,0,0,0,1.69-.51Z" fill="#685441"/>
          <path id="use970" d="M142.489,27.448a5.482,5.482,0,0,1-1.69.805,6.623,6.623,0,0,1-1.877.268,4.287,4.287,0,0,1-3.192-1.18,4.98,4.98,0,0,1-1.073-3.46V16.4h-2.226V13.93h2.226V10.792l3.433-.4v3.54h3.3L141.04,16.4h-2.95v7.4a2.508,2.508,0,0,0,.349,1.5,1.406,1.406,0,0,0,1.153.456,3.5,3.5,0,0,0,1.69-.51Z" transform="translate(10.058)" fill="#685441"/>
          <path id="path972" d="M165.662,20.689q0,.268-.08,1.4h-8.9a4.5,4.5,0,0,0,1.073,2.95,3.319,3.319,0,0,0,2.414.885,5.252,5.252,0,0,0,1.77-.3,8.8,8.8,0,0,0,1.77-.966l1.421,1.958a8.167,8.167,0,0,1-5.257,1.9,6.369,6.369,0,0,1-5.015-1.985,7.926,7.926,0,0,1-1.743-5.418,9.613,9.613,0,0,1,.751-3.889,6.1,6.1,0,0,1,2.172-2.709,6.42,6.42,0,0,1,7.992.912,7.744,7.744,0,0,1,1.636,5.257Zm-3.406-.992q0-3.728-2.763-3.728a2.37,2.37,0,0,0-1.985.939,5.526,5.526,0,0,0-.831,2.95h5.579Zm13.49-6.142a5.052,5.052,0,0,1,1.421.188l-.59,3.326a5.188,5.188,0,0,0-1.261-.161,2.4,2.4,0,0,0-1.985.912,6.78,6.78,0,0,0-1.153,2.736v7.563h-3.433V13.93h2.977l.322,2.789a5.009,5.009,0,0,1,1.475-2.333,3.313,3.313,0,0,1,2.226-.831Z" fill="#685441"/>
        </g>
      </g>
    </g>
  </g>
</svg>
