<?xml version="1.0" encoding="UTF-8" standalone="no"?>
<svg
   xmlns:dc="http://purl.org/dc/elements/1.1/"
   xmlns:cc="http://creativecommons.org/ns#"
   xmlns:rdf="http://www.w3.org/1999/02/22-rdf-syntax-ns#"
   xmlns:svg="http://www.w3.org/2000/svg"
   xmlns="http://www.w3.org/2000/svg"
   xmlns:sodipodi="http://sodipodi.sourceforge.net/DTD/sodipodi-0.dtd"
   xmlns:inkscape="http://www.inkscape.org/namespaces/inkscape"
   version="1.1"
   id="svg2"
   inkscape:version="1.0.2 (e86c870879, 2021-01-15)"
   sodipodi:docname="logo-colour.svg"
   x="0px"
   y="0px"
   viewBox="0 0 177.16793 44.867671"
   xml:space="preserve"
   width="177.16792"
   height="44.867672"><metadata
   id="metadata75"><rdf:RDF><cc:Work
       rdf:about=""><dc:format>image/svg+xml</dc:format><dc:type
         rdf:resource="http://purl.org/dc/dcmitype/StillImage" /><dc:title /></cc:Work></rdf:RDF></metadata><defs
   id="defs73">
	
	
	
	

		
		
		
		
		
		
		
		
		
		
		
		
		
		
		
		
		
	</defs><sodipodi:namedview
   pagecolor="#ffffff"
   bordercolor="#666666"
   borderopacity="1"
   objecttolerance="10"
   gridtolerance="10"
   guidetolerance="10"
   inkscape:pageopacity="0"
   inkscape:pageshadow="2"
   inkscape:window-width="2048"
   inkscape:window-height="1079"
   id="namedview71"
   showgrid="false"
   inkscape:zoom="2.8284271"
   inkscape:cx="134.76786"
   inkscape:cy="4.439505"
   inkscape:window-x="0"
   inkscape:window-y="0"
   inkscape:window-maximized="1"
   inkscape:current-layer="svg2"
   fit-margin-top="0"
   fit-margin-left="0"
   fit-margin-right="0"
   fit-margin-bottom="0"
   inkscape:document-rotation="0" />
<style
   type="text/css"
   id="style2">
	.st0{fill:#0000FF;}
	.st1{fill:#166DB7;}
	.st2{fill:#0E65AF;}
	.st3{fill:#005BA8;}
	.st4{fill:#1073CC;}
	.st5{fill:#4697D8;}
	.st6{fill:#000080;}
	.st7{fill:#000080;stroke:#000080;stroke-width:0.9826;}
	.st8{fill:#000080;stroke:#000080;stroke-width:1.256;}
	.st9{fill:#A37D64;}
	.st10{fill:#685441;}
</style>
<g
   id="g60"
   transform="translate(162.81523,11.592893)">
		
		
		
		
		
		
		
		
		
		
	</g><g
   id="polygon1820_4_"
   transform="matrix(0.6366645,0,0,0.6366645,-3.0559896,-2.9923231)"
   style="stroke:none;stroke-width:0.785343;stroke-miterlimit:4;stroke-dasharray:none">
		<polygon
   style="fill:#a37d64;stroke:none;stroke-width:0.785343;stroke-miterlimit:4;stroke-dasharray:none"
   id="polygon62"
   points="14.3,53 14.3,35.8 30,26.8 45.8,35.8 45.8,53 40.7,53 40.7,38.7 30,32.6 19.4,38.7 19.4,53 "
   class="st9" />
	</g><g
   id="path1822_4_"
   transform="matrix(0.6366645,0,0,0.6366645,-3.0559896,-2.9923231)"
   style="stroke:none;stroke-width:0.785343;stroke-miterlimit:4;stroke-dasharray:none">
		
			<path
   style="fill:#685441;stroke:none;stroke-width:0.785343;stroke-miterlimit:4;stroke-dasharray:none"
   id="path65"
   d="M 30.1,4.7 4.8,19.3 V 48.5 L 30.1,63.1 55.4,48.5 V 19.3 Z m 0,5.5 L 50.6,22 V 45.7 L 30.1,57.6 9.5,45.7 V 22 Z"
   class="st10"
   inkscape:export-ydpi="161.67"
   inkscape:export-xdpi="161.67"
   inkscape:export-filename="/var/www/zerodha/rainmatter/images/full-logo.png"
   inkscape:connector-curvature="0" />
	</g>
<g
   aria-label="Foundation"
   transform="matrix(0.60622673,0,0,0.60622673,76.822105,3.356904)"
   id="text1191"
   style="font-size:18.6667px;line-height:1.25;font-family:P052;-inkscape-font-specification:P052;fill:#b3b3b3;fill-opacity:1;stroke-width:1.64956"><path
     d="M 71.61667,68.25 V 55.388643 h 6.832012 l -0.205333,1.41867 h -4.853342 v 4.386674 h 4.200007 V 62.59399 H 73.390007 V 68.25 Z"
     style="font-style:normal;font-variant:normal;font-weight:normal;font-stretch:normal;font-size:18.6667px;font-family:'Fira Sans';-inkscape-font-specification:'Fira Sans';fill:#b3b3b3;fill-opacity:1;stroke-width:1.64956"
     id="path1214" /><path
     d="m 83.731311,58.188649 q 2.072004,0 3.210672,1.381335 1.157336,1.381336 1.157336,3.752007 0,1.53067 -0.522668,2.706672 -0.522667,1.157335 -1.512003,1.81067 -0.989335,0.634667 -2.352004,0.634667 -2.072004,0 -3.229339,-1.381335 -1.157335,-1.381336 -1.157335,-3.752007 0,-1.53067 0.522667,-2.688005 0.522668,-1.176002 1.512003,-1.81067 0.989335,-0.653334 2.370671,-0.653334 z m 0,1.381335 q -2.557338,0 -2.557338,3.770674 0,3.752007 2.538671,3.752007 2.538671,0 2.538671,-3.770674 0,-3.752007 -2.520004,-3.752007 z"
     style="font-style:normal;font-variant:normal;font-weight:normal;font-stretch:normal;font-size:18.6667px;font-family:'Fira Sans';-inkscape-font-specification:'Fira Sans';fill:#b3b3b3;fill-opacity:1;stroke-width:1.64956"
     id="path1216" /><path
     d="m 98.253998,68.25 h -1.474669 l -0.130667,-1.530669 q -0.560001,0.914668 -1.288003,1.344002 -0.728001,0.410667 -1.773336,0.410667 -1.288003,0 -2.016004,-0.784001 -0.728001,-0.784001 -0.728001,-2.221337 v -7.056013 h 1.717336 v 6.869346 q 0,1.008001 0.354668,1.437336 0.354667,0.410667 1.157335,0.410667 1.437336,0 2.464004,-1.69867 v -7.018679 h 1.717337 z"
     style="font-style:normal;font-variant:normal;font-weight:normal;font-stretch:normal;font-size:18.6667px;font-family:'Fira Sans';-inkscape-font-specification:'Fira Sans';fill:#b3b3b3;fill-opacity:1;stroke-width:1.64956"
     id="path1218" /><path
     d="m 106.42999,58.188649 q 1.344,0 2.09067,0.802668 0.76533,0.802668 0.76533,2.20267 V 68.25 h -1.71733 v -6.813346 q 0,-1.045335 -0.392,-1.474669 -0.392,-0.429334 -1.15734,-0.429334 -0.784,0 -1.38133,0.448001 -0.59734,0.448001 -1.12001,1.288002 V 68.25 h -1.71733 v -9.837351 h 1.47467 l 0.14933,1.456003 q 0.52267,-0.784002 1.288,-1.232003 0.784,-0.448 1.71734,-0.448 z"
     style="font-style:normal;font-variant:normal;font-weight:normal;font-stretch:normal;font-size:18.6667px;font-family:'Fira Sans';-inkscape-font-specification:'Fira Sans';fill:#b3b3b3;fill-opacity:1;stroke-width:1.64956"
     id="path1220" /><path
     d="M 120.35532,54.455308 V 68.25 h -1.512 l -0.168,-1.362669 q -0.48534,0.746668 -1.21334,1.176002 -0.728,0.410667 -1.624,0.410667 -1.75467,0 -2.74401,-1.381335 -0.97067,-1.381336 -0.97067,-3.714674 0,-1.512003 0.46667,-2.688005 0.46667,-1.176002 1.344,-1.829336 0.87734,-0.672001 2.05334,-0.672001 1.512,0 2.65067,1.213335 v -5.152009 z m -4.14401,12.656023 q 0.784,0 1.344,-0.354667 0.56001,-0.373334 1.08267,-1.101335 V 60.83932 q -0.48533,-0.634668 -1.04533,-0.952002 -0.54134,-0.336 -1.232,-0.336 -1.13867,0 -1.77334,0.952001 -0.616,0.952002 -0.616,2.837339 0,1.904003 0.57867,2.837338 0.57866,0.933335 1.66133,0.933335 z"
     style="font-style:normal;font-variant:normal;font-weight:normal;font-stretch:normal;font-size:18.6667px;font-family:'Fira Sans';-inkscape-font-specification:'Fira Sans';fill:#b3b3b3;fill-opacity:1;stroke-width:1.64956"
     id="path1222" /><path
     d="m 130.52866,65.953996 q 0,0.597334 0.20534,0.896001 0.20533,0.280001 0.616,0.429335 L 130.958,68.474 q -0.76534,-0.09333 -1.23201,-0.429334 -0.46666,-0.336 -0.69066,-1.045335 -0.98934,1.474669 -2.93068,1.474669 -1.456,0 -2.296,-0.821334 -0.84,-0.821335 -0.84,-2.146671 0,-1.568003 1.12,-2.408004 1.13867,-0.840002 3.21067,-0.840002 h 1.51201 v -0.728001 q 0,-1.045335 -0.50401,-1.493336 -0.504,-0.448001 -1.54933,-0.448001 -1.08267,0 -2.65067,0.522668 l -0.42934,-1.250669 q 1.82934,-0.672001 3.39734,-0.672001 1.73601,0 2.59467,0.858668 0.85867,0.840001 0.85867,2.408004 z m -4.03201,1.232002 q 1.47467,0 2.31468,-1.530669 v -2.258671 h -1.28801 q -2.72533,0 -2.72533,2.016004 0,0.877334 0.42933,1.325335 0.42933,0.448001 1.26933,0.448001 z"
     style="font-style:normal;font-variant:normal;font-weight:normal;font-stretch:normal;font-size:18.6667px;font-family:'Fira Sans';-inkscape-font-specification:'Fira Sans';fill:#b3b3b3;fill-opacity:1;stroke-width:1.64956"
     id="path1224" /><path
     d="m 139.02199,67.801999 q -0.97067,0.672001 -2.20267,0.672001 -1.25067,0 -1.96001,-0.709334 -0.69066,-0.728002 -0.69066,-2.090671 v -5.93601 h -1.71734 v -1.325336 h 1.71734 v -2.221337 l 1.71733,-0.205334 v 2.426671 h 2.33334 l -0.18667,1.325336 h -2.14667 v 5.861344 q 0,0.765334 0.26134,1.120002 0.28,0.336 0.91467,0.336 0.57866,0 1.30666,-0.392001 z"
     style="font-style:normal;font-variant:normal;font-weight:normal;font-stretch:normal;font-size:18.6667px;font-family:'Fira Sans';-inkscape-font-specification:'Fira Sans';fill:#b3b3b3;fill-opacity:1;stroke-width:1.64956"
     id="path1226" /><path
     d="M 142.51263,58.412649 V 68.25 h -1.71734 v -9.837351 z m -0.87733,-4.722675 q 0.54133,0 0.87733,0.336 0.336,0.336001 0.336,0.840002 0,0.504001 -0.336,0.840001 -0.336,0.317334 -0.87733,0.317334 -0.52267,0 -0.85867,-0.317334 -0.336,-0.336 -0.336,-0.840001 0,-0.504001 0.336,-0.840002 0.336,-0.336 0.85867,-0.336 z"
     style="font-style:normal;font-variant:normal;font-weight:normal;font-stretch:normal;font-size:18.6667px;font-family:'Fira Sans';-inkscape-font-specification:'Fira Sans';fill:#b3b3b3;fill-opacity:1;stroke-width:1.64956"
     id="path1228" /><path
     d="m 149.7553,58.188649 q 2.072,0 3.21067,1.381335 1.15734,1.381336 1.15734,3.752007 0,1.53067 -0.52267,2.706672 -0.52267,1.157335 -1.512,1.81067 -0.98934,0.634667 -2.35201,0.634667 -2.072,0 -3.22934,-1.381335 -1.15733,-1.381336 -1.15733,-3.752007 0,-1.53067 0.52267,-2.688005 0.52266,-1.176002 1.512,-1.81067 0.98933,-0.653334 2.37067,-0.653334 z m 0,1.381335 q -2.55734,0 -2.55734,3.770674 0,3.752007 2.53867,3.752007 2.53868,0 2.53868,-3.770674 0,-3.752007 -2.52001,-3.752007 z"
     style="font-style:normal;font-variant:normal;font-weight:normal;font-stretch:normal;font-size:18.6667px;font-family:'Fira Sans';-inkscape-font-specification:'Fira Sans';fill:#b3b3b3;fill-opacity:1;stroke-width:1.64956"
     id="path1230" /><path
     d="m 161.58998,58.188649 q 1.344,0 2.09067,0.802668 0.76534,0.802668 0.76534,2.20267 V 68.25 h -1.71734 v -6.813346 q 0,-1.045335 -0.392,-1.474669 -0.392,-0.429334 -1.15734,-0.429334 -0.784,0 -1.38133,0.448001 -0.59734,0.448001 -1.12001,1.288002 V 68.25 h -1.71733 v -9.837351 h 1.47467 l 0.14933,1.456003 q 0.52267,-0.784002 1.288,-1.232003 0.784,-0.448 1.71734,-0.448 z"
     style="font-style:normal;font-variant:normal;font-weight:normal;font-stretch:normal;font-size:18.6667px;font-family:'Fira Sans';-inkscape-font-specification:'Fira Sans';fill:#b3b3b3;fill-opacity:1;stroke-width:1.64956"
     id="path1232" /></g><text
   xml:space="preserve"
   style="font-size:40px;line-height:1.25;font-family:P052;-inkscape-font-specification:P052;fill:#685441;fill-opacity:1;stroke-width:1.4914"
   x="-133.99673"
   y="30.052038"
   id="text1251"
   transform="matrix(0.67051255,0,0,0.67051255,130.79335,7.9680397)"><tspan
     sodipodi:role="line"
     id="tspan1249"
     x="-133.99673"
     y="30.052038"
     style="font-style:normal;font-variant:normal;font-weight:500;font-stretch:normal;font-family:'Fira Sans';-inkscape-font-specification:'Fira Sans Medium';fill:#685441;fill-opacity:1;stroke-width:1.4914">Rainmatter</tspan></text></svg>
