<?xml version="1.0" encoding="UTF-8"?>
<svg id="Layer_2" data-name="Layer 2" xmlns="http://www.w3.org/2000/svg" viewBox="0 0 204.81 49.43">
  <defs>
    <style>
      .cls-1 {
        fill: #a37d64;
      }

      .cls-1, .cls-2, .cls-3, .cls-4 {
        stroke-width: 0px;
      }

      .cls-2 {
        fill: #c7c7c7;
      }

      .cls-3 {
        fill: #b3b3b3;
      }

      .cls-4 {
        fill: #685441;
      }
    </style>
  </defs>
  <g id="Layer_1-2" data-name="Layer 1">
    <g>
      <path id="path940" class="cls-1" d="m8.04,40.87v-14.56l13.29-7.62,13.38,7.62v14.56h-4.32v-12.11l-9.05-5.15-8.97,5.15v12.11h-4.32Z"/>
      <path id="path942" class="cls-4" d="m21.41,0L0,12.36v24.71l21.41,12.36,21.41-12.36V12.36L21.41,0Zm0,4.65l17.34,9.99v20.06l-17.34,10.07L3.99,34.7V14.64L21.41,4.65h0Z"/>
      <path id="path960" class="cls-4" d="m65.67,19.46h-2.45v8.06h-3.83V7.4h6c5.31,0,7.98,1.98,7.98,5.92.06,1.18-.3,2.34-.99,3.3-.83.99-1.87,1.71-3.08,2.12l5.26,8.75h-4.43l-4.46-8.04h0Zm-2.45-2.75h2.39c.99.08,1.95-.22,2.75-.77.69-.66,1.05-1.62.96-2.59.08-.91-.28-1.79-.99-2.37-.91-.58-1.98-.85-3.05-.77h-2.06v6.49h0Z"/>
      <path id="use962" class="cls-4" d="m88.12,23.45c-.03.47.06.91.28,1.35.22.3.55.52.91.63l-.8,2.48c-.77-.06-1.49-.25-2.15-.63-.58-.39-1.02-.94-1.24-1.6-.5.74-1.18,1.35-1.98,1.73-.83.39-1.71.58-2.61.55-1.35.08-2.64-.41-3.63-1.32-.91-.91-1.38-2.15-1.35-3.44-.08-1.49.61-2.92,1.82-3.8,1.54-.99,3.39-1.46,5.2-1.35h1.93v-.88c.08-.77-.17-1.51-.69-2.06-.63-.47-1.4-.69-2.17-.61-1.4.06-2.78.33-4.07.83l-.88-2.53c1.79-.72,3.66-1.07,5.59-1.1,3.94,0,5.92,1.76,5.92,5.28l-.06,6.47h0Zm-6.63,1.79c1.27,0,2.42-.74,2.97-1.9v-3.08h-1.54c-2.39,0-3.61.88-3.61,2.67-.03.63.17,1.24.55,1.71.44.44,1.02.66,1.62.61h0Z"/>
      <path id="path964" class="cls-4" d="m96.38,12.14v15.38h-3.72v-15.38s3.72,0,3.72,0Zm-1.9-7.82c.63-.03,1.24.22,1.68.66.44.41.69.99.66,1.6,0,.61-.22,1.18-.66,1.6-.44.44-1.07.66-1.68.63-.63.03-1.24-.22-1.68-.63-.41-.41-.66-.99-.63-1.6-.03-.61.22-1.18.63-1.6.44-.44,1.05-.66,1.68-.66Zm14.59,7.38c1.21-.08,2.37.39,3.19,1.24.83.94,1.24,2.17,1.16,3.44v11.15h-3.72v-10.57c.06-.69-.11-1.35-.5-1.93-.36-.39-.88-.61-1.4-.55-.63,0-1.24.22-1.73.61-.58.5-1.1,1.07-1.49,1.71v10.71h-3.72v-15.36h3.22l.3,2.01c1.05-1.54,2.81-2.45,4.68-2.45h0Zm25.02,0c1.13-.06,2.23.41,2.97,1.29.77.96,1.18,2.17,1.1,3.41v11.15h-3.72v-10.6c0-1.65-.55-2.48-1.68-2.48-.58,0-1.13.19-1.57.58-.55.5-.99,1.1-1.35,1.73v10.71h-3.72v-10.54c0-1.65-.55-2.48-1.68-2.48-.58,0-1.16.19-1.6.58-.55.5-.99,1.1-1.35,1.73v10.71h-3.74v-15.36h3.25l.3,2.01c.96-1.51,2.64-2.45,4.46-2.45.83-.03,1.62.22,2.31.69.66.47,1.16,1.13,1.43,1.9.55-.77,1.24-1.43,2.04-1.93.74-.44,1.62-.69,2.53-.66h0Z"/>
      <path id="use966" class="cls-4" d="m153.87,23.45c-.03.47.06.91.28,1.35.22.3.55.52.91.63l-.77,2.48c-.77-.06-1.49-.25-2.15-.63-.58-.39-1.02-.94-1.24-1.6-.5.74-1.18,1.35-1.98,1.73-.83.39-1.71.58-2.61.55-1.35.08-2.64-.41-3.63-1.32-.91-.91-1.38-2.15-1.35-3.44-.08-1.49.61-2.92,1.82-3.8,1.54-.99,3.39-1.46,5.2-1.35h1.93v-.88c.08-.77-.17-1.51-.69-2.06-.63-.47-1.4-.69-2.17-.61-1.4.06-2.78.33-4.07.83l-.88-2.53c1.79-.72,3.66-1.07,5.59-1.1,3.94,0,5.92,1.76,5.92,5.28l-.08,6.47h0Zm-6.66,1.79c1.27,0,2.42-.74,2.97-1.9v-3.08h-1.54c-2.39,0-3.61.88-3.61,2.67-.03.63.17,1.24.55,1.71.44.44,1.02.66,1.62.61h0Z"/>
      <path id="use968" class="cls-4" d="m167.19,26.81c-.55.39-1.18.69-1.84.88s-1.35.3-2.04.3c-1.29.06-2.53-.39-3.47-1.29-.85-1.05-1.27-2.39-1.16-3.74v-8.15h-2.39v-2.67h2.42v-3.41l3.72-.44v3.85h3.58l-.39,2.67h-3.19v8.04c-.06.58.08,1.13.39,1.62.33.36.77.52,1.24.5.66-.03,1.29-.22,1.84-.55l1.29,2.39h0Z"/>
      <path id="use970" class="cls-4" d="m178.09,26.81c-.55.39-1.18.69-1.84.88s-1.35.3-2.04.3c-1.29.06-2.53-.39-3.47-1.29-.85-1.05-1.27-2.39-1.16-3.74v-8.15h-2.42v-2.67h2.42v-3.41l3.72-.44v3.85h3.58l-.39,2.67h-3.19v8.04c-.06.58.08,1.13.39,1.62.33.36.77.52,1.24.5.66-.03,1.29-.22,1.84-.55l1.32,2.39h0Z"/>
      <path id="path972" class="cls-4" d="m192.32,19.46c0,.19-.03.69-.08,1.51h-9.66c0,1.18.41,2.31,1.16,3.19.72.66,1.65,1.02,2.61.96.66,0,1.29-.11,1.93-.33.69-.28,1.32-.63,1.93-1.05l1.54,2.12c-1.6,1.35-3.63,2.06-5.7,2.06-2.04.11-4.05-.66-5.45-2.15-1.35-1.65-2.01-3.74-1.9-5.89-.03-1.46.25-2.89.83-4.21.5-1.18,1.29-2.2,2.37-2.94,2.75-1.73,6.38-1.32,8.67.99,1.27,1.65,1.9,3.66,1.76,5.72h0Zm-3.69-1.07c0-2.7-.99-4.05-3-4.05-.85-.03-1.65.36-2.15,1.02-.61.96-.91,2.06-.91,3.19h6.05v-.17h0Zm14.64-6.66c.52,0,1.05.06,1.54.19l-.63,3.61c-.44-.11-.91-.17-1.38-.17-.83-.03-1.62.33-2.15.99-.63.88-1.05,1.9-1.24,2.97v8.2h-3.72v-15.38h3.22l.36,3.03c.28-.96.83-1.84,1.6-2.53.63-.61,1.51-.91,2.39-.91h0Z"/>
      <g>
        <path class="cls-2" d="m200.16,38.45h1.1l3,6.83h-1.27l-.69-1.65h-3.22l-.69,1.65h-1.21l2.97-6.83Zm1.71,4.16l-1.18-2.72-1.16,2.72h2.34Z"/>
        <path class="cls-2" d="m190.39,38.5h1.18v2.83h3.25v-2.83h1.18v6.8h-1.18v-2.86h-3.25v2.86h-1.18v-6.8Z"/>
        <path class="cls-2" d="m148.59,39.88c.47.61.83,1.27,1.13,1.98v-3.8h-3.22c.77.41,1.49,1.05,2.09,1.82Z"/>
        <path class="cls-2" d="m143.94,38.47c-.61,0-1.18.14-1.71.36v6.74h7.18c-.08-3.94-2.5-7.1-5.48-7.1"/>
        <path class="cls-2" d="m154.01,44.39l4.02-4.84h-3.88v-1.05h5.42v.88l-4.02,4.84h4.02v1.05h-5.56v-.88h0Z"/>
        <path class="cls-2" d="m161.05,38.5h5.04v1.07h-3.85v1.73h3.41v1.07h-3.41v1.82h3.88v1.07h-5.06v-6.77h0Z"/>
        <path class="cls-2" d="m167.55,38.5h3.03c.44,0,.8.06,1.13.19.33.11.61.28.83.5.19.19.33.41.41.66.11.25.14.52.14.83v.03c0,.28-.03.52-.11.74-.08.22-.19.41-.33.58s-.3.33-.52.44-.41.22-.66.28l1.84,2.56h-1.4l-1.68-2.37h-1.51v2.37h-1.18v-6.8h.03Zm2.94,3.36c.44,0,.77-.11,1.02-.3.25-.19.39-.5.39-.83v-.03c0-.36-.11-.66-.36-.85-.25-.19-.61-.28-1.05-.28h-1.73v2.28h1.73Z"/>
        <path class="cls-2" d="m177.79,45.41c-.52,0-.99-.08-1.43-.28-.44-.19-.8-.44-1.13-.74-.3-.33-.55-.69-.72-1.1s-.28-.88-.28-1.35v-.06c0-.47.08-.94.28-1.35.17-.41.41-.8.74-1.13.33-.33.69-.58,1.13-.77s.91-.28,1.43-.28.99.08,1.43.28c.44.19.8.44,1.13.74s.55.69.72,1.1.28.88.28,1.35v.03c0,.47-.08.94-.28,1.35-.17.41-.41.8-.74,1.13-.33.33-.69.58-1.13.77-.41.19-.91.3-1.43.3Zm.03-1.1c.33,0,.63-.06.94-.19.28-.14.52-.3.72-.52.19-.22.36-.47.47-.77s.17-.61.17-.94h0c0-.33-.06-.63-.17-.94s-.28-.55-.47-.77-.44-.39-.74-.52c-.28-.14-.61-.19-.94-.19s-.63.06-.94.19c-.28.14-.52.3-.72.52-.19.22-.36.47-.47.77s-.17.61-.17.94v.03c0,.33.06.63.17.94.11.3.28.55.47.77s.44.39.74.52c.3.11.61.17.94.17Z"/>
        <path class="cls-2" d="m182.79,38.5h2.53c.52,0,1.02.08,1.46.25.44.17.83.41,1.16.72s.58.66.74,1.07c.17.41.28.85.28,1.32v.03c0,.47-.08.94-.28,1.35-.17.41-.41.77-.74,1.07-.33.3-.69.55-1.16.72-.44.17-.94.28-1.46.28h-2.53v-6.8h0Zm2.53,5.7c.36,0,.69-.06.96-.17.3-.11.55-.28.74-.47s.36-.44.47-.74c.11-.28.17-.58.17-.91v-.03c0-.33-.06-.63-.17-.94-.11-.28-.28-.52-.47-.74-.19-.19-.44-.36-.74-.5-.3-.11-.61-.17-.96-.17h-1.35v4.62l1.35.03h0Z"/>
      </g>
      <g>
        <path class="cls-3" d="m59.23,45.55v-8.34h4.43l-.14.91h-3.14v2.83h2.72v.91h-2.72v3.66l-1.16.03h0Z"/>
        <path class="cls-3" d="m69.16,39.91c.5.61.74,1.4.74,2.42,0,.66-.11,1.24-.33,1.76s-.55.91-.99,1.18-.94.41-1.51.41c-.91,0-1.6-.3-2.09-.91s-.74-1.4-.74-2.42c0-.66.11-1.24.33-1.76.22-.5.55-.91.99-1.18s.94-.41,1.54-.41c.88.03,1.57.33,2.06.91Zm-3.74,2.45c0,1.62.55,2.42,1.65,2.42s1.65-.83,1.65-2.45-.55-2.42-1.62-2.42c-1.13,0-1.68.83-1.68,2.45Z"/>
        <path class="cls-3" d="m76.51,45.55h-.96l-.08-.99c-.25.39-.52.69-.83.85-.3.19-.69.28-1.16.28-.55,0-.99-.17-1.32-.5-.3-.33-.47-.83-.47-1.43v-4.57h1.1v4.46c0,.44.08.74.22.94.17.19.41.28.74.28.63,0,1.16-.36,1.6-1.1v-4.54h1.1v6.33h.06Z"/>
        <path class="cls-3" d="m83.17,39.55c.33.36.5.83.5,1.43v4.57h-1.1v-4.43c0-.44-.08-.77-.25-.96s-.41-.28-.74-.28-.63.11-.91.3c-.25.19-.5.47-.72.83v4.54h-1.1v-6.38h.96l.11.94c.22-.33.5-.61.85-.8.33-.19.72-.3,1.1-.3.52.03.96.19,1.29.55Z"/>
        <path class="cls-3" d="m90.85,36.6v8.94h-.99l-.11-.88c-.22.33-.47.58-.8.77-.3.19-.66.28-1.05.28-.77,0-1.35-.3-1.76-.91s-.63-1.4-.63-2.42c0-.66.11-1.24.3-1.73s.5-.91.88-1.18c.39-.28.83-.44,1.32-.44.66,0,1.24.28,1.71.8v-3.33l1.13.11Zm-1.82,7.98c.25-.17.47-.39.72-.72v-3.14c-.22-.28-.44-.5-.66-.63-.25-.14-.5-.22-.8-.22-.5,0-.88.19-1.16.61s-.41,1.02-.41,1.84.14,1.43.39,1.84.61.61,1.07.61c.3.03.61-.06.85-.19Z"/>
        <path class="cls-3" d="m97.56,44.64c.08.14.22.22.41.28l-.25.77c-.33-.03-.61-.14-.8-.28-.19-.14-.36-.36-.44-.69-.44.63-1.07.96-1.9.96-.63,0-1.13-.17-1.49-.52-.36-.36-.55-.83-.55-1.4,0-.69.25-1.21.74-1.57.5-.36,1.18-.55,2.06-.55h.99v-.47c0-.44-.11-.77-.33-.96s-.55-.3-1.02-.3-1.05.11-1.71.33l-.28-.8c.8-.3,1.51-.44,2.2-.44.74,0,1.32.19,1.68.55.36.36.55.88.55,1.57v2.92c0,.28.03.47.11.61Zm-1.24-.77v-1.46h-.83c-1.18,0-1.76.44-1.76,1.32,0,.39.08.66.28.85.19.19.47.3.83.3.63-.03,1.13-.36,1.49-1.02Z"/>
        <path class="cls-3" d="m102.96,45.24c-.41.3-.91.44-1.43.44-.55,0-.96-.17-1.27-.47-.3-.3-.44-.77-.44-1.35v-3.85h-1.1v-.85h1.1v-1.43l1.1-.14v1.57h1.51l-.11.85h-1.4v3.8c0,.33.06.58.17.72s.3.22.58.22c.25,0,.52-.08.85-.25l.44.74Z"/>
        <path class="cls-3" d="m105.21,36.33c.14.14.22.33.22.55s-.08.39-.22.55c-.14.14-.33.22-.58.22-.22,0-.41-.08-.55-.22s-.22-.33-.22-.55.08-.41.22-.55.33-.22.55-.22c.25,0,.44.06.58.22Zm0,2.83v6.38h-1.1v-6.38h1.1Z"/>
        <path class="cls-3" d="m112.01,39.91c.5.61.74,1.4.74,2.42,0,.66-.11,1.24-.33,1.76s-.55.91-.99,1.18-.94.41-1.51.41c-.91,0-1.6-.3-2.09-.91-.5-.61-.74-1.4-.74-2.42,0-.66.11-1.24.33-1.76.22-.5.55-.91.99-1.18s.94-.41,1.54-.41c.85.03,1.57.33,2.06.91Zm-3.74,2.45c0,1.62.55,2.42,1.65,2.42s1.65-.83,1.65-2.45-.55-2.42-1.62-2.42c-1.13,0-1.68.83-1.68,2.45Z"/>
        <path class="cls-3" d="m118.95,39.55c.33.36.5.83.5,1.43v4.57h-1.1v-4.43c0-.44-.08-.77-.25-.96s-.41-.28-.74-.28-.63.11-.91.3c-.25.19-.5.47-.72.83v4.54h-1.1v-6.38h.96l.11.94c.22-.33.5-.61.85-.8.33-.19.72-.3,1.1-.3.52.03.96.19,1.29.55Z"/>
      </g>
      <g>
        <path class="cls-3" d="m130.01,39.91c.44.58.63,1.4.63,2.45,0,.66-.11,1.24-.3,1.76s-.5.91-.88,1.18c-.39.28-.83.41-1.32.41-.66,0-1.24-.28-1.71-.85l-.11.72h-.99v-8.94l1.1-.14v3.47c.47-.63,1.07-.94,1.82-.94s1.35.28,1.76.88Zm-.96,4.29c.28-.41.41-1.02.41-1.87s-.14-1.49-.39-1.87c-.25-.39-.63-.58-1.1-.58-.58,0-1.07.33-1.49.99v3.05c.17.28.39.47.63.63s.5.22.77.22c.5.03.88-.17,1.16-.58Z"/>
        <path class="cls-3" d="m135.07,45.57c-.25.74-.61,1.32-1.05,1.76-.44.44-1.1.69-1.93.77l-.11-.88c.41-.08.74-.17,1.02-.3.25-.14.44-.3.61-.52.14-.22.28-.5.41-.85h-.39l-2.15-6.38h1.18l1.71,5.56,1.68-5.56h1.16l-2.15,6.41Z"/>
      </g>
    </g>
  </g>
</svg>